<svg width="24" height="49" viewBox="0 0 24 49" fill="none" xmlns="http://www.w3.org/2000/svg">
<path d="M24 5.30184e-08L24 4.31653L7.22906e-05 4.31653L7.24792e-05 -1.04907e-06L24 5.30184e-08Z" fill="black"/>
<path fill-rule="evenodd" clip-rule="evenodd" d="M18.0415 20.6329H23.9998V12.9494H19.4243V15.521C17.3817 13.9103 14.8031 12.9492 12 12.9492C9.1968 12.9492 6.61813 13.9104 4.57552 15.5211V12.9492H0L0 24.9492C0 24.9603 1.52019e-05 24.9715 4.55862e-05 24.9826L4.57764e-05 20.6329H5.95838C7.3052 18.7511 9.50936 17.5247 12 17.5247C14.4906 17.5247 16.6947 18.7511 18.0415 20.6329ZM23.9998 29.2661H18.0411C16.6942 31.1475 14.4903 32.3736 12 32.3736C9.50966 32.3736 7.30572 31.1475 5.95886 29.2661H0.799924C2.5334 33.7606 6.89432 36.9491 12 36.9491C14.8031 36.9491 17.3817 35.988 19.4243 34.3774L19.4243 48.5176H23.9998L23.9998 29.2661Z" fill="black"/>
</svg>
