<svg width="126" height="126" viewBox="0 0 126 126" fill="none" xmlns="http://www.w3.org/2000/svg">
<circle cx="63" cy="63" r="58" stroke="#050505" stroke-width="10"/>
<path d="M121 63C121 63.7108 120.572 65.1838 117.954 67.2471C115.393 69.266 111.376 71.3028 105.967 73.1058C95.2004 76.6945 80.0091 79 63 79C45.9909 79 30.7996 76.6945 20.0334 73.1058C14.6242 71.3028 10.6075 69.266 8.04572 67.2471C5.42761 65.1838 5 63.7108 5 63C5 62.2892 5.42761 60.8162 8.04572 58.7529C10.6075 56.734 14.6242 54.6972 20.0334 52.8942C30.7996 49.3055 45.9909 47 63 47C80.0091 47 95.2004 49.3055 105.967 52.8942C111.376 54.6972 115.393 56.734 117.954 58.7529C120.572 60.8162 121 62.2892 121 63Z" stroke="#050505" stroke-width="10"/>
<path d="M63 5C64.4015 5 66.3117 5.72684 68.6267 8.29706C70.9405 10.8661 73.2534 14.8649 75.2981 20.2322C79.3743 30.9322 82 46.0515 82 63C82 79.9485 79.3743 95.0678 75.2981 105.768C73.2534 111.135 70.9405 115.134 68.6267 117.703C66.3117 120.273 64.4015 121 63 121C61.5985 121 59.6883 120.273 57.3733 117.703C55.0595 115.134 52.7466 111.135 50.7019 105.768C46.6257 95.0678 44 79.9485 44 63C44 46.0515 46.6257 30.9322 50.7019 20.2322C52.7466 14.8649 55.0595 10.8661 57.3733 8.29706C59.6883 5.72684 61.5985 5 63 5Z" stroke="#050505" stroke-width="10"/>
</svg>
