<svg width="100" height="100" viewBox="0 0 100 100" fill="none" xmlns="http://www.w3.org/2000/svg">
<path d="M82.9546 49.9999C82.9546 50.4038 82.7116 51.2407 81.2241 52.4131C79.7685 53.5601 77.4863 54.7174 74.4129 55.7419C68.2958 57.7809 59.6643 59.0908 50 59.0908C40.3358 59.0908 31.7043 57.7809 25.5872 55.7419C22.5138 54.7174 20.2316 53.5601 18.776 52.4131C17.2885 51.2407 17.0455 50.4038 17.0455 49.9999C17.0455 49.5961 17.2885 48.7591 18.776 47.5868C20.2316 46.4397 22.5138 45.2825 25.5872 44.258C31.7043 42.2189 40.3358 40.909 50 40.909C59.6643 40.909 68.2958 42.2189 74.4129 44.258C77.4863 45.2825 79.7685 46.4397 81.2241 47.5868C82.7116 48.7591 82.9546 49.5961 82.9546 49.9999Z" stroke="#050505" stroke-width="5.68182"/>
<path d="M50 17.0454C50.7963 17.0454 51.8817 17.4584 53.197 18.9187C54.5117 20.3784 55.8258 22.6505 56.9876 25.7001C59.3036 31.7796 60.7955 40.3701 60.7955 50C60.7955 59.6298 59.3036 68.2203 56.9876 74.2998C55.8258 77.3494 54.5117 79.6215 53.197 81.0812C51.8817 82.5415 50.7963 82.9545 50 82.9545C49.2037 82.9545 48.1183 82.5415 46.803 81.0812C45.4883 79.6215 44.1742 77.3494 43.0124 74.2998C40.6964 68.2203 39.2046 59.6298 39.2046 50C39.2046 40.3701 40.6964 31.7796 43.0124 25.7001C44.1742 22.6505 45.4883 20.3784 46.803 18.9187C48.1183 17.4584 49.2037 17.0454 50 17.0454Z" stroke="#050505" stroke-width="5.68182"/>
</svg>
