<svg width="16" height="16" viewBox="0 0 16 16" fill="none" xmlns="http://www.w3.org/2000/svg">
<circle cx="7.99996" cy="7.99996" r="7.28886" stroke="#050505" stroke-width="1.42222"/>
<path d="M15.2888 8.00064C15.2888 8.05755 15.2549 8.22495 14.9311 8.48011C14.6153 8.72895 14.1144 8.98415 13.4319 9.21163C12.0745 9.66412 10.1539 9.95619 7.99996 9.95619C5.846 9.95619 3.92546 9.66412 2.56801 9.21163C1.88556 8.98415 1.38459 8.72895 1.06883 8.48011C0.745061 8.22495 0.711108 8.05755 0.711108 8.00064C0.711108 7.94373 0.745061 7.77633 1.06883 7.52117C1.38459 7.27233 1.88556 7.01713 2.56801 6.78965C3.92546 6.33716 5.846 6.04509 7.99996 6.04509C10.1539 6.04509 12.0745 6.33716 13.4319 6.78965C14.1144 7.01713 14.6153 7.27233 14.9311 7.52117C15.2549 7.77633 15.2888 7.94373 15.2888 8.00064Z" stroke="#050505" stroke-width="1.42222"/>
<path d="M8.00073 0.711179C8.14957 0.711179 8.37313 0.787687 8.65861 1.10465C8.94394 1.42145 9.23348 1.91987 9.49119 2.59636C10.0047 3.9444 10.3372 5.85469 10.3372 8.00004C10.3372 10.1454 10.0047 12.0557 9.49119 13.4037C9.23348 14.0802 8.94394 14.5786 8.65861 14.8954C8.37313 15.2124 8.14957 15.2889 8.00073 15.2889C7.8519 15.2889 7.62833 15.2124 7.34285 14.8954C7.05752 14.5786 6.76798 14.0802 6.51027 13.4037C5.99673 12.0557 5.66423 10.1454 5.66423 8.00004C5.66423 5.85469 5.99673 3.9444 6.51027 2.59636C6.76798 1.91987 7.05752 1.42145 7.34285 1.10465C7.62833 0.787687 7.85189 0.711179 8.00073 0.711179Z" stroke="#050505" stroke-width="1.42222"/>
</svg>
