<svg width="100" height="100" viewBox="0 0 100 100" fill="none" xmlns="http://www.w3.org/2000/svg">
<path d="M23.3278 26.1711C17.6248 32.5049 14.3689 40.6658 14.1458 49.1859C13.9227 57.706 16.747 66.0261 22.1107 72.6497C27.4744 79.2733 35.0255 83.7658 43.4058 85.319C51.7861 86.8722 60.4456 85.3842 67.8267 81.1227L65.3311 90.4365" stroke="#050505" stroke-width="5.68182"/>
<path d="M76.5301 74.0748C82.2331 67.7409 85.489 59.58 85.7121 51.06C85.9352 42.5399 83.1109 34.2198 77.7472 27.5961C72.3835 20.9725 64.8324 16.4801 56.4521 14.9269C48.0719 13.3737 39.4124 14.8617 32.0312 19.1232L34.6308 9.42128" stroke="#050505" stroke-width="5.68182"/>
<circle cx="49.9999" cy="50.0001" r="23.2955" stroke="#050505" stroke-width="4.54545"/>
<path d="M73.2954 50C73.2954 50.1819 73.1869 50.7169 72.1521 51.5324C71.1429 52.3277 69.5418 53.1434 67.3607 53.8704C63.0222 55.3166 56.8841 56.25 49.9999 56.25C43.1158 56.25 36.9777 55.3166 32.6392 53.8704C30.4581 53.1434 28.857 52.3277 27.8478 51.5324C26.813 50.7169 26.7045 50.1819 26.7045 50C26.7045 49.8181 26.813 49.2831 27.8478 48.4676C28.857 47.6723 30.4581 46.8567 32.6392 46.1296C36.9777 44.6835 43.1158 43.75 49.9999 43.75C56.8841 43.75 63.0222 44.6835 67.3607 46.1296C69.5418 46.8567 71.1429 47.6723 72.1521 48.4676C73.1869 49.2831 73.2954 49.8181 73.2954 50Z" stroke="#050505" stroke-width="4.54545"/>
<path d="M50 26.7045C50.4757 26.7045 51.1902 26.949 52.1026 27.962C53.0146 28.9745 53.9399 30.5675 54.7636 32.7296C56.4049 37.038 57.4676 43.1433 57.4676 49.9999C57.4676 56.8565 56.4049 62.9619 54.7636 67.2703C53.9399 69.4324 53.0146 71.0253 52.1026 72.0378C51.1902 73.0509 50.4757 73.2954 50 73.2954C49.5243 73.2954 48.8098 73.0509 47.8974 72.0378C46.9855 71.0253 46.0601 69.4324 45.2365 67.2703C43.5952 62.9619 42.5325 56.8565 42.5325 49.9999C42.5325 43.1433 43.5952 37.038 45.2365 32.7296C46.0601 30.5675 46.9855 28.9745 47.8974 27.962C48.8098 26.949 49.5243 26.7045 50 26.7045Z" stroke="#050505" stroke-width="4.54545"/>
</svg>
