<svg width="145" height="146" viewBox="0 0 145 146" fill="none" xmlns="http://www.w3.org/2000/svg">
<path d="M26.0568 31.0613C16.0196 42.2088 10.2892 56.572 9.89655 71.5673C9.50388 86.5627 14.4746 101.206 23.9148 112.864C33.3549 124.521 46.6448 132.428 61.3941 135.162C76.1434 137.895 91.3841 135.276 104.375 127.776L99.9827 144.168" stroke="#050505" stroke-width="10"/>
<path d="M119.693 115.372C129.73 104.224 135.461 89.861 135.853 74.8656C136.246 59.8703 131.275 45.2269 121.835 33.5693C112.395 21.9117 99.1051 14.0051 84.3558 11.2714C69.6065 8.53781 54.3658 11.1566 41.375 18.6569L45.9503 1.58159" stroke="#050505" stroke-width="10"/>
<circle cx="73" cy="73" r="41" stroke="#050505" stroke-width="8"/>
<path d="M114 73C114 73.3201 113.809 74.2617 111.988 75.697C110.212 77.0968 107.394 78.5323 103.555 79.8119C95.9192 82.3571 85.1161 84 73 84C60.8839 84 50.0808 82.3571 42.4451 79.8119C38.6063 78.5323 35.7884 77.0968 34.0122 75.697C32.191 74.2617 32 73.3201 32 73C32 72.6799 32.191 71.7383 34.0122 70.303C35.7884 68.9032 38.6063 67.4677 42.4451 66.1881C50.0808 63.6429 60.8839 62 73 62C85.1161 62 95.9192 63.6429 103.555 66.1881C107.394 67.4677 110.212 68.9032 111.988 70.303C113.809 71.7383 114 72.6799 114 73Z" stroke="#050505" stroke-width="8"/>
<path d="M73 32C73.8372 32 75.0947 32.4304 76.7006 34.2133C78.3055 35.9953 79.9342 38.7989 81.3839 42.6042C84.2725 50.1869 86.1428 60.9324 86.1428 73C86.1428 85.0676 84.2725 95.813 81.3839 103.396C79.9342 107.201 78.3055 110.005 76.7006 111.787C75.0947 113.57 73.8372 114 73 114C72.1628 114 70.9052 113.57 69.2994 111.787C67.6944 110.005 66.0657 107.201 64.6161 103.396C61.7274 95.813 59.8571 85.0676 59.8571 73C59.8571 60.9324 61.7274 50.1869 64.6161 42.6042C66.0657 38.7989 67.6944 35.9953 69.2994 34.2133C70.9052 32.4304 72.1628 32 73 32Z" stroke="#050505" stroke-width="8"/>
</svg>
