<svg width="100" height="100" viewBox="0 0 100 100" fill="none" xmlns="http://www.w3.org/2000/svg">
<mask id="path-1-inside-1" fill="white">
<path fill-rule="evenodd" clip-rule="evenodd" d="M49.9049 19.8765C49.905 19.8757 49.9142 19.8769 49.9326 19.8825C49.9141 19.8801 49.9049 19.8773 49.9049 19.8765ZM48.914 20.8201C49.4743 20.198 49.839 19.98 50 19.9085C50.1611 19.98 50.5258 20.198 51.0861 20.8201C52.084 21.9281 53.2431 23.8511 54.3328 26.7115C55.5358 29.8692 56.5203 33.8149 57.1576 38.3068C54.8449 38.1504 52.4513 38.0682 50 38.0682C47.5488 38.0682 45.1551 38.1504 42.8424 38.3068C43.4798 33.8149 44.4643 29.8692 45.6673 26.7115C46.7569 23.8511 47.916 21.9281 48.914 20.8201ZM37.0351 38.8749C38.8176 24.5523 43.9485 14.2046 50 14.2046C56.0516 14.2046 61.1825 24.5523 62.965 38.8749C76.3255 40.6062 85.7955 44.9345 85.7955 50C85.7955 55.0656 76.3255 59.3939 62.965 61.1252C61.1825 75.4478 56.0516 85.7955 50 85.7955C43.9485 85.7955 38.8176 75.4478 37.0351 61.1252C23.6746 59.3939 14.2046 55.0656 14.2046 50C14.2046 44.9345 23.6746 40.6062 37.0351 38.8749ZM36.5132 55.3183C32.6769 54.7602 29.2799 53.9783 26.4856 53.0469C23.5776 52.0775 21.6342 51.0486 20.5345 50.1819C20.4524 50.1172 20.3787 50.0566 20.3126 50C20.3787 49.9435 20.4524 49.8829 20.5345 49.8182C21.6342 48.9515 23.5776 47.9225 26.4856 46.9532C29.2799 46.0218 32.6769 45.2398 36.5132 44.6817C36.4147 46.417 36.3637 48.1929 36.3637 50C36.3637 51.8072 36.4147 53.5831 36.5132 55.3183ZM42.2455 55.953C42.1147 54.0327 42.0455 52.0435 42.0455 50C42.0455 47.9566 42.1147 45.9674 42.2455 44.0471C44.7169 43.854 47.3127 43.75 50 43.75C52.6874 43.75 55.2832 43.854 57.7546 44.0471C57.8853 45.9674 57.9546 47.9566 57.9546 50C57.9546 52.0435 57.8853 54.0327 57.7546 55.953C55.2832 56.146 52.6874 56.25 50 56.25C47.3127 56.25 44.7169 56.146 42.2455 55.953ZM42.8424 61.6933C43.4798 66.1852 44.4643 70.1309 45.6673 73.2886C46.7569 76.1489 47.916 78.072 48.914 79.18C49.4743 79.8021 49.839 80.0201 50 80.0916C50.1611 80.0201 50.5258 79.8021 51.0861 79.18C52.084 78.072 53.2431 76.1489 54.3328 73.2886C55.5358 70.1309 56.5203 66.1852 57.1576 61.6933C54.8449 61.8497 52.4513 61.9319 50 61.9319C47.5488 61.9319 45.1551 61.8497 42.8424 61.6933ZM63.4869 55.3183C67.3232 54.7602 70.7202 53.9783 73.5145 53.0469C76.4225 52.0775 78.3659 51.0486 79.4656 50.1819C79.5477 50.1172 79.6214 50.0566 79.6875 50C79.6214 49.9435 79.5477 49.8829 79.4656 49.8182C78.3659 48.9515 76.4225 47.9225 73.5145 46.9532C70.7202 46.0218 67.3232 45.2398 63.4869 44.6817C63.5854 46.417 63.6364 48.1929 63.6364 50C63.6364 51.8072 63.5854 53.5831 63.4869 55.3183ZM49.9326 80.1175C49.9141 80.12 49.9049 80.1228 49.9049 80.1236C49.905 80.1241 49.908 80.1239 49.9139 80.1226C49.9184 80.1216 49.9247 80.12 49.9326 80.1175ZM50.0951 80.1236C50.0951 80.1244 50.0859 80.1232 50.0675 80.1175C50.086 80.12 50.0952 80.1228 50.0951 80.1236ZM50.0675 19.8825C50.0859 19.8769 50.0951 19.8757 50.0951 19.8765C50.0952 19.8773 50.086 19.8801 50.0675 19.8825Z"/>
</mask>
<path d="M49.9049 19.8765L50.4729 19.8926L50.4729 19.8925L49.9049 19.8765ZM49.9326 19.8825L49.8582 20.4458L50.0999 19.3396L49.9326 19.8825ZM50 19.9085L50.2305 19.3892H49.7696L50 19.9085ZM48.914 20.8201L48.4918 20.4398L48.4918 20.4398L48.914 20.8201ZM51.0861 20.8201L51.5083 20.4398V20.4398L51.0861 20.8201ZM54.3328 26.7115L54.8638 26.5093V26.5093L54.3328 26.7115ZM57.1576 38.3068L57.1193 38.8737L57.7202 38.227L57.1576 38.3068ZM42.8424 38.3068L42.2799 38.227L42.8808 38.8737L42.8424 38.3068ZM45.6673 26.7115L46.1982 26.9138L45.6673 26.7115ZM50 14.2046V13.6364V14.2046ZM37.0351 38.8749L37.1081 39.4384L37.599 38.9451L37.0351 38.8749ZM62.965 38.8749L62.4011 38.9451L62.892 39.4384L62.965 38.8749ZM62.965 61.1252L62.892 60.5617L62.4011 61.055L62.965 61.1252ZM37.0351 61.1252L37.599 61.055L37.1081 60.5617L37.0351 61.1252ZM26.4856 53.0469L26.3059 53.5859L26.4856 53.0469ZM36.5132 55.3183L36.4314 55.8806L37.0804 55.2861L36.5132 55.3183ZM20.5345 50.1819L20.8862 49.7356L20.8862 49.7356L20.5345 50.1819ZM20.3126 50L19.9433 49.5682L19.9433 50.4319L20.3126 50ZM20.5345 49.8182L20.8862 50.2645L20.8862 50.2645L20.5345 49.8182ZM26.4856 46.9532L26.3059 46.4142L26.4856 46.9532ZM36.5132 44.6817L37.0804 44.7139L36.4314 44.1195L36.5132 44.6817ZM42.2455 55.953L41.6786 55.9916L42.2012 56.5195L42.2455 55.953ZM42.2455 44.0471L42.2012 43.4806L41.6786 44.0085L42.2455 44.0471ZM57.7546 44.0471L58.3215 44.0085L57.7989 43.4806L57.7546 44.0471ZM57.7546 55.953L57.7989 56.5195L58.3215 55.9916L57.7546 55.953ZM42.8424 61.6933L42.8808 61.1264L42.2799 61.7731L42.8424 61.6933ZM45.6673 73.2886L46.1982 73.0863L45.6673 73.2886ZM48.914 79.18L48.4918 79.5603H48.4918L48.914 79.18ZM50 80.0916L49.7696 80.6109H50.2305L50 80.0916ZM51.0861 79.18L51.5083 79.5603L51.0861 79.18ZM54.3328 73.2886L53.8019 73.0863L54.3328 73.2886ZM57.1576 61.6933L57.7202 61.7731L57.1193 61.1264L57.1576 61.6933ZM63.4869 55.3183L62.9197 55.2861L63.5687 55.8806L63.4869 55.3183ZM73.5145 53.0469L73.6942 53.5859L73.5145 53.0469ZM79.4656 50.1819L79.8173 50.6281V50.6281L79.4656 50.1819ZM79.6875 50L80.0568 50.4319V49.5682L79.6875 50ZM79.4656 49.8182L79.8173 49.372L79.4656 49.8182ZM73.5145 46.9532L73.6942 46.4142L73.5145 46.9532ZM63.4869 44.6817L63.5687 44.1195L62.9197 44.7139L63.4869 44.6817ZM49.9049 80.1236L50.473 80.1094L50.4729 80.1074L49.9049 80.1236ZM49.9326 80.1175L50.1003 80.6604L49.8581 79.5543L49.9326 80.1175ZM49.9139 80.1226L50.0341 80.6779L50.0348 80.6778L49.9139 80.1226ZM50.0951 80.1236L49.5273 80.1047L49.5272 80.1075L50.0951 80.1236ZM50.0675 80.1175L50.1417 79.5542L49.9002 80.6605L50.0675 80.1175ZM50.0675 19.8825L49.9001 19.3396L50.1418 20.4458L50.0675 19.8825ZM50.4729 19.8925C50.4637 20.2183 50.2135 20.3596 50.1441 20.3918C50.0615 20.4301 49.9901 20.4385 49.969 20.4409C49.9152 20.4469 49.873 20.4436 49.8627 20.4428C49.8317 20.4404 49.8087 20.4359 49.8013 20.4344L50.0225 19.3198C50.0105 19.3174 49.984 19.3124 49.9507 19.3098C49.9393 19.3089 49.8962 19.3055 49.8418 19.3117C49.8203 19.3141 49.7487 19.3225 49.666 19.3609C49.5964 19.3932 49.3462 19.5346 49.337 19.8604L50.4729 19.8925ZM49.7706 20.4271C49.7684 20.4265 49.7666 20.426 49.7652 20.4255L50.0999 19.3396C50.0936 19.3376 50.0873 19.3357 50.0809 19.3339L49.7706 20.4271ZM50.0069 19.3192C50.0088 19.3195 50.011 19.3198 50.0136 19.3202L49.8375 20.4428C49.8444 20.4439 49.8513 20.4449 49.8582 20.4458L50.0069 19.3192ZM50.0467 19.327C50.0545 19.3289 50.0757 19.3342 50.1027 19.3441C50.113 19.3479 50.1461 19.3602 50.1854 19.3825C50.2027 19.3923 50.2474 19.4185 50.2953 19.4637C50.3199 19.4869 50.3598 19.5287 50.3957 19.5902C50.432 19.6524 50.4767 19.757 50.4729 19.8926L49.337 19.8604C49.3297 20.1173 49.4909 20.267 49.5147 20.2896C49.5628 20.335 49.6078 20.3613 49.6253 20.3712C49.6652 20.3938 49.699 20.4065 49.7105 20.4107C49.7397 20.4214 49.7642 20.4277 49.7764 20.4307L50.0467 19.327ZM49.7696 19.3892C49.6617 19.437 49.5258 19.5128 49.3622 19.631L50.0277 20.5521C50.1368 20.4733 50.2047 20.4393 50.2305 20.4278L49.7696 19.3892ZM48.7554 20.1605C48.6717 20.2448 48.5839 20.3376 48.4918 20.4398L49.3362 21.2003C49.4166 21.1111 49.4919 21.0316 49.5621 20.9609L48.7554 20.1605ZM48.4918 20.4398C48.1438 20.8262 47.7841 21.2977 47.4198 21.8557L48.3713 22.4769C48.7095 21.9589 49.0341 21.5357 49.3362 21.2003L48.4918 20.4398ZM45.7899 24.9176C45.5701 25.4136 45.3517 25.9439 45.1363 26.5093L46.1982 26.9138C46.4068 26.3663 46.6176 25.8547 46.8288 25.3779L45.7899 24.9176ZM45.1363 26.5093C44.961 26.9695 44.7904 27.4456 44.625 27.937L45.702 28.2996C45.8629 27.8216 46.0284 27.3595 46.1982 26.9138L45.1363 26.5093ZM43.7561 30.8356C43.5062 31.7745 43.2732 32.755 43.0589 33.7733L44.171 34.0073C44.3813 33.0075 44.6097 32.0465 44.8543 31.1279L43.7561 30.8356ZM42.507 36.7372C42.4271 37.2269 42.3513 37.7236 42.2799 38.227L43.405 38.3866C43.4753 37.8909 43.5499 37.4021 43.6285 36.9203L42.507 36.7372ZM42.8808 38.8737C43.4682 38.834 44.0609 38.799 44.6585 38.7691L44.6016 37.6341C43.9974 37.6644 43.3981 37.6997 42.8041 37.7399L42.8808 38.8737ZM48.2187 38.651C48.8088 38.6413 49.4027 38.6364 50 38.6364V37.5C49.3965 37.5 48.7964 37.505 48.2 37.5148L48.2187 38.651ZM50 38.6364C50.5974 38.6364 51.1913 38.6413 51.7814 38.651L51.8001 37.5148C51.2037 37.505 50.6036 37.5 50 37.5V38.6364ZM55.3416 38.7691C55.9392 38.799 56.5319 38.834 57.1193 38.8737L57.196 37.7399C56.602 37.6997 56.0027 37.6644 55.3985 37.6341L55.3416 38.7691ZM57.7202 38.227C57.6488 37.7236 57.573 37.2269 57.4931 36.7372L56.3715 36.9203C56.4502 37.4021 56.5248 37.8909 56.5951 38.3866L57.7202 38.227ZM56.9411 33.7733C56.7269 32.755 56.4939 31.7745 56.2439 30.8355L55.1458 31.1279C55.3904 32.0465 55.6188 33.0075 55.8291 34.0073L56.9411 33.7733ZM55.3751 27.937C55.2096 27.4456 55.0391 26.9695 54.8638 26.5093L53.8019 26.9138C53.9716 27.3595 54.1372 27.8216 54.2981 28.2996L55.3751 27.937ZM54.8638 26.5093C54.6484 25.9439 54.43 25.4136 54.2102 24.9176L53.1712 25.3779C53.3825 25.8547 53.5933 26.3663 53.8019 26.9138L54.8638 26.5093ZM52.5803 21.8557C52.2159 21.2977 51.8563 20.8262 51.5083 20.4398L50.6639 21.2003C50.966 21.5357 51.2906 21.9589 51.6287 22.4769L52.5803 21.8557ZM51.5083 20.4398C51.4162 20.3376 51.3284 20.2448 51.2447 20.1605L50.438 20.9609C50.5082 21.0316 50.5835 21.1111 50.6639 21.2003L51.5083 20.4398ZM50.6378 19.631C50.4743 19.5128 50.3384 19.437 50.2305 19.3892L49.7696 20.4278C49.7954 20.4393 49.8632 20.4733 49.9724 20.5521L50.6378 19.631ZM50 13.6364C49.4521 13.6364 48.9123 13.713 48.3834 13.8612L48.6899 14.9554C49.1225 14.8343 49.5592 14.7728 50 14.7728V13.6364ZM45.5902 15.3701C44.845 15.9778 44.1349 16.7322 43.4629 17.6132L44.3665 18.3023C44.9951 17.478 45.6448 16.7919 46.3083 16.2507L45.5902 15.3701ZM41.807 20.1708C41.3418 21.0072 40.8984 21.9129 40.4787 22.8815L41.5214 23.3333C41.9279 22.3952 42.355 21.5233 42.8001 20.7231L41.807 20.1708ZM39.3902 25.6858C39.0727 26.5985 38.7732 27.553 38.4928 28.5454L39.5864 28.8543C39.861 27.8822 40.1539 26.9492 40.4635 26.059L39.3902 25.6858ZM37.7531 31.446C37.5357 32.3949 37.3344 33.3718 37.1504 34.3739L38.2681 34.5791C38.4492 33.5927 38.6471 32.6321 38.8608 31.6999L37.7531 31.446ZM36.6694 37.3239C36.5994 37.8126 36.5333 38.3063 36.4713 38.8048L37.599 38.9451C37.6601 38.4535 37.7253 37.9668 37.7943 37.485L36.6694 37.3239ZM36.9621 38.3115C36.5109 38.3699 36.0639 38.4314 35.6216 38.4957L35.7851 39.6202C36.2215 39.5568 36.6626 39.4961 37.1081 39.4384L36.9621 38.3115ZM32.9489 38.929C32.0396 39.0923 31.1532 39.2682 30.292 39.4563L30.5344 40.5665C31.3812 40.3816 32.2537 40.2083 33.1498 40.0475L32.9489 38.929ZM27.6583 40.0893C26.7527 40.3282 25.8813 40.5815 25.0472 40.8483L25.3934 41.9306C26.2076 41.6702 27.0602 41.4223 27.9481 41.1881L27.6583 40.0893ZM22.4798 41.7583C21.5874 42.1091 20.7512 42.4781 19.9767 42.8638L20.4833 43.881C21.2248 43.5117 22.0303 43.156 22.8955 42.8159L22.4798 41.7583ZM17.5888 44.2386C16.7463 44.8055 16.0195 45.4045 15.427 46.0338L16.2544 46.8128C16.7771 46.2575 17.4351 45.7117 18.2232 45.1815L17.5888 44.2386ZM13.8817 48.5018C13.7205 48.9899 13.6364 49.4904 13.6364 50H14.7728C14.7728 49.6173 14.8356 49.2369 14.9607 48.8581L13.8817 48.5018ZM13.6364 50C13.6364 50.5097 13.7205 51.0102 13.8817 51.4983L14.9607 51.142C14.8356 50.7632 14.7728 50.3828 14.7728 50H13.6364ZM15.427 53.9663C16.0195 54.5956 16.7463 55.1946 17.5888 55.7614L18.2232 54.8186C17.4351 54.2884 16.7771 53.7426 16.2544 53.1873L15.427 53.9663ZM19.9767 57.1363C20.7512 57.522 21.5874 57.891 22.4798 58.2417L22.8955 57.1841C22.0303 56.8441 21.2248 56.4884 20.4833 56.1191L19.9767 57.1363ZM25.0472 59.1518C25.8813 59.4186 26.7527 59.6719 27.6583 59.9108L27.9481 58.812C27.0602 58.5778 26.2076 58.3299 25.3934 58.0695L25.0472 59.1518ZM30.292 60.5438C31.1532 60.7318 32.0396 60.9078 32.9489 61.0711L33.1498 59.9526C32.2537 59.7918 31.3813 59.6185 30.5344 59.4336L30.292 60.5438ZM35.6216 61.5044C36.064 61.5687 36.5109 61.6302 36.9621 61.6886L37.1081 60.5617C36.6626 60.504 36.2216 60.4433 35.7851 60.3799L35.6216 61.5044ZM36.4713 61.1953C36.5333 61.6938 36.5994 62.1875 36.6694 62.6762L37.7943 62.5151C37.7253 62.0333 37.6601 61.5466 37.599 61.055L36.4713 61.1953ZM37.1504 65.6262C37.3344 66.6283 37.5357 67.6052 37.7531 68.5541L38.8608 68.3002C38.6471 67.368 38.4492 66.4074 38.2681 65.421L37.1504 65.6262ZM38.4928 71.4547C38.7732 72.4471 39.0727 73.4016 39.3902 74.3143L40.4635 73.941C40.1539 73.0509 39.861 72.1179 39.5864 71.1458L38.4928 71.4547ZM40.4787 77.1185C40.8984 78.0871 41.3418 78.9929 41.807 79.8293L42.8001 79.277C42.355 78.4768 41.9279 77.6049 41.5214 76.6668L40.4787 77.1185ZM43.4629 82.3869C44.1349 83.2679 44.845 84.0223 45.5902 84.63L46.3083 83.7494C45.6448 83.2082 44.9952 82.5221 44.3665 81.6978L43.4629 82.3869ZM48.3834 86.1389C48.9123 86.287 49.4521 86.3637 50 86.3637V85.2273C49.5592 85.2273 49.1225 85.1658 48.6899 85.0447L48.3834 86.1389ZM50 86.3637C50.548 86.3637 51.0878 86.287 51.6167 86.1389L51.3102 85.0447C50.8776 85.1658 50.4409 85.2273 50 85.2273V86.3637ZM54.4099 84.63C55.1551 84.0223 55.8652 83.2679 56.5372 82.3869L55.6336 81.6978C55.0049 82.5221 54.3553 83.2082 53.6917 83.7493L54.4099 84.63ZM58.1931 79.8293C58.6583 78.9929 59.1017 78.0871 59.5213 77.1185L58.4787 76.6667C58.0721 77.6049 57.645 78.4768 57.2 79.277L58.1931 79.8293ZM60.6099 74.3143C60.9274 73.4016 61.2269 72.4471 61.5073 71.4547L60.4137 71.1458C60.1391 72.1179 59.8462 73.0509 59.5366 73.941L60.6099 74.3143ZM62.2469 68.5541C62.4644 67.6052 62.6657 66.6283 62.8497 65.6262L61.732 65.421C61.5509 66.4074 61.353 67.368 61.1393 68.3002L62.2469 68.5541ZM63.3307 62.6762C63.4007 62.1875 63.4668 61.6938 63.5288 61.1953L62.4011 61.055C62.34 61.5466 62.2748 62.0333 62.2058 62.5151L63.3307 62.6762ZM63.038 61.6886C63.4892 61.6302 63.9361 61.5687 64.3785 61.5044L64.215 60.3799C63.7785 60.4433 63.3375 60.504 62.892 60.5617L63.038 61.6886ZM67.0511 61.0711C67.9605 60.9078 68.8469 60.7318 69.7081 60.5438L69.4657 59.4336C68.6188 59.6185 67.7463 59.7918 66.8503 59.9526L67.0511 61.0711ZM72.3418 59.9108C73.2474 59.6719 74.1188 59.4186 74.9529 59.1518L74.6067 58.0695C73.7925 58.3299 72.9399 58.5778 72.052 58.812L72.3418 59.9108ZM77.5203 58.2417C78.4127 57.891 79.2489 57.522 80.0234 57.1363L79.5167 56.1191C78.7753 56.4884 77.9698 56.8441 77.1046 57.1841L77.5203 58.2417ZM82.4113 55.7614C83.2538 55.1946 83.9806 54.5956 84.5731 53.9663L83.7457 53.1873C83.223 53.7426 82.5649 54.2884 81.7769 54.8186L82.4113 55.7614ZM86.1184 51.4983C86.2796 51.0102 86.3637 50.5097 86.3637 50H85.2273C85.2273 50.3828 85.1645 50.7632 85.0394 51.142L86.1184 51.4983ZM86.3637 50C86.3637 49.4904 86.2796 48.9899 86.1184 48.5018L85.0394 48.8581C85.1645 49.2369 85.2273 49.6173 85.2273 50H86.3637ZM84.5731 46.0338C83.9806 45.4045 83.2538 44.8055 82.4113 44.2386L81.7769 45.1815C82.5649 45.7117 83.223 46.2575 83.7457 46.8128L84.5731 46.0338ZM80.0234 42.8638C79.2489 42.4781 78.4127 42.1091 77.5203 41.7583L77.1046 42.8159C77.9698 43.156 78.7753 43.5117 79.5167 43.881L80.0234 42.8638ZM74.9529 40.8483C74.1188 40.5815 73.2474 40.3282 72.3418 40.0893L72.0519 41.1881C72.9399 41.4223 73.7925 41.6702 74.6067 41.9306L74.9529 40.8483ZM69.7081 39.4563C68.8469 39.2682 67.9605 39.0923 67.0511 38.929L66.8503 40.0475C67.7463 40.2083 68.6188 40.3816 69.4657 40.5665L69.7081 39.4563ZM64.3785 38.4957C63.9361 38.4314 63.4892 38.3699 63.038 38.3115L62.892 39.4384C63.3375 39.4961 63.7785 39.5567 64.215 39.6202L64.3785 38.4957ZM63.5288 38.8048C63.4668 38.3063 63.4007 37.8126 63.3307 37.3239L62.2058 37.485C62.2748 37.9668 62.34 38.4535 62.4011 38.9451L63.5288 38.8048ZM62.8497 34.3739C62.6657 33.3718 62.4644 32.3949 62.2469 31.446L61.1393 31.6999C61.353 32.6321 61.5509 33.5927 61.732 34.5791L62.8497 34.3739ZM61.5073 28.5454C61.2269 27.553 60.9274 26.5985 60.6099 25.6858L59.5366 26.059C59.8462 26.9492 60.1391 27.8822 60.4137 28.8543L61.5073 28.5454ZM59.5213 22.8815C59.1017 21.9129 58.6583 21.0071 58.1931 20.1708L57.2 20.7231C57.645 21.5233 58.0721 22.3952 58.4787 23.3333L59.5213 22.8815ZM56.5372 17.6132C55.8652 16.7322 55.1551 15.9778 54.4099 15.3701L53.6917 16.2507C54.3553 16.7919 55.0049 17.478 55.6336 18.3023L56.5372 17.6132ZM51.6167 13.8612C51.0878 13.713 50.548 13.6364 50 13.6364V14.7728C50.4409 14.7728 50.8776 14.8343 51.3102 14.9554L51.6167 13.8612ZM26.6653 52.5078C26.1181 52.3255 25.6065 52.1412 25.1295 51.9567L24.7196 53.0166C25.2141 53.2079 25.7426 53.3981 26.3059 53.5859L26.6653 52.5078ZM22.198 50.5989C21.66 50.2938 21.2253 50.0029 20.8862 49.7356L20.1828 50.6281C20.5758 50.9379 21.0602 51.26 21.6372 51.5873L22.198 50.5989ZM20.8862 49.7356C20.8683 49.7216 20.8509 49.7077 20.834 49.6942L20.1226 50.5803C20.1422 50.596 20.1623 50.612 20.1828 50.6281L20.8862 49.7356ZM20.7318 49.6104C20.7146 49.596 20.6979 49.582 20.6818 49.5682L19.9433 50.4319C19.9627 50.4484 19.9825 50.4652 20.0029 50.4823L20.7318 49.6104ZM20.6818 50.4319C20.6979 50.4181 20.7146 50.404 20.7318 50.3896L20.0029 49.5178C19.9825 49.5349 19.9627 49.5517 19.9433 49.5682L20.6818 50.4319ZM20.834 50.3059C20.8509 50.2923 20.8683 50.2785 20.8862 50.2645L20.1828 49.3719C20.1623 49.3881 20.1422 49.404 20.1226 49.4198L20.834 50.3059ZM20.8862 50.2645C21.2253 49.9972 21.66 49.7063 22.198 49.4011L21.6372 48.4128C21.0602 48.7401 20.5758 49.0622 20.1828 49.372L20.8862 50.2645ZM25.1295 48.0433C25.6065 47.8589 26.1181 47.6746 26.6653 47.4922L26.3059 46.4142C25.7426 46.602 25.2141 46.7922 24.7196 46.9835L25.1295 48.0433ZM26.6653 47.4922C27.0564 47.3619 27.4599 47.2343 27.8753 47.1099L27.5491 46.0213C27.1231 46.149 26.7085 46.28 26.3059 46.4142L26.6653 47.4922ZM30.3313 46.4446C31.1288 46.2496 31.9593 46.0653 32.8204 45.8928L32.5973 44.7786C31.7213 44.954 30.8751 45.1418 30.0614 45.3408L30.3313 46.4446ZM35.3322 45.4384C35.7474 45.3709 36.1684 45.3061 36.595 45.244L36.4314 44.1195C35.9986 44.1824 35.5714 44.2482 35.1499 44.3168L35.3322 45.4384ZM35.9459 44.6496C35.9207 45.0926 35.8987 45.5383 35.8798 45.9864L37.0151 46.0344C37.0338 45.5917 37.0556 45.1515 37.0804 44.7139L35.9459 44.6496ZM35.8048 48.6619C35.7986 49.1059 35.7955 49.552 35.7955 50H36.9319C36.9319 49.5573 36.9349 49.1165 36.941 48.6777L35.8048 48.6619ZM35.7955 50C35.7955 50.448 35.7986 50.8941 35.8048 51.3382L36.941 51.3224C36.9349 50.8836 36.9319 50.4428 36.9319 50H35.7955ZM35.8798 54.0137C35.8987 54.4618 35.9207 54.9075 35.9459 55.3505L37.0804 55.2861C37.0556 54.8486 37.0338 54.4084 37.0151 53.9657L35.8798 54.0137ZM36.595 54.7561C36.1684 54.694 35.7474 54.6292 35.3322 54.5617L35.1499 55.6833C35.5714 55.7519 35.9986 55.8176 36.4314 55.8806L36.595 54.7561ZM32.8204 54.1073C31.9593 53.9348 31.1288 53.7505 30.3313 53.5555L30.0614 54.6593C30.8751 54.8583 31.7213 55.0461 32.5973 55.2215L32.8204 54.1073ZM27.8753 52.8902C27.4599 52.7657 27.0564 52.6382 26.6653 52.5078L26.3059 53.5859C26.7085 53.7201 27.1231 53.8511 27.5491 53.9788L27.8753 52.8902ZM42.6137 50C42.6137 49.5034 42.6178 49.01 42.6259 48.5201L41.4897 48.5013C41.4815 48.9975 41.4773 49.4971 41.4773 50H42.6137ZM42.7248 45.5624C42.7499 45.0658 42.7791 44.5735 42.8123 44.0856L41.6786 44.0085C41.6449 44.5029 41.6153 45.0019 41.5899 45.5051L42.7248 45.5624ZM42.2897 44.6135C42.9231 44.564 43.5648 44.5205 44.2142 44.483L44.1488 43.3485C43.4917 43.3864 42.8423 43.4305 42.2012 43.4806L42.2897 44.6135ZM48.0702 44.3363C48.7078 44.3243 49.3512 44.3182 50 44.3182V43.1819C49.3441 43.1819 48.6936 43.188 48.0489 43.2001L48.0702 44.3363ZM50 44.3182C50.6489 44.3182 51.2923 44.3243 51.9299 44.3363L51.9512 43.2001C51.3065 43.188 50.656 43.1819 50 43.1819V44.3182ZM55.7859 44.483C56.4353 44.5205 57.077 44.564 57.7104 44.6135L57.7989 43.4806C57.1577 43.4305 56.5084 43.3864 55.8513 43.3485L55.7859 44.483ZM57.1878 44.0856C57.221 44.5735 57.2502 45.0658 57.2753 45.5624L58.4102 45.5051C58.3848 45.0019 58.3552 44.5029 58.3215 44.0085L57.1878 44.0856ZM57.3742 48.5201C57.3823 49.01 57.3864 49.5034 57.3864 50H58.5228C58.5228 49.4971 58.5186 48.9975 58.5104 48.5013L57.3742 48.5201ZM57.3864 50C57.3864 50.4967 57.3823 50.99 57.3742 51.48L58.5104 51.4988C58.5186 51.0026 58.5228 50.5029 58.5228 50H57.3864ZM57.2753 54.4376C57.2502 54.9343 57.221 55.4266 57.1878 55.9144L58.3215 55.9916C58.3552 55.4972 58.3848 54.9982 58.4102 54.495L57.2753 54.4376ZM57.7104 55.3866C57.077 55.436 56.4353 55.4796 55.7859 55.5171L55.8513 56.6516C56.5084 56.6137 57.1577 56.5696 57.7989 56.5195L57.7104 55.3866ZM51.9299 55.6638C51.2923 55.6758 50.6489 55.6819 50 55.6819V56.8182C50.656 56.8182 51.3065 56.8121 51.9512 56.8L51.9299 55.6638ZM50 55.6819C49.3512 55.6819 48.7078 55.6758 48.0702 55.6638L48.0489 56.8C48.6936 56.8121 49.3441 56.8182 50 56.8182V55.6819ZM44.2142 55.5171C43.5648 55.4796 42.9231 55.436 42.2897 55.3866L42.2012 56.5195C42.8423 56.5696 43.4917 56.6137 44.1488 56.6516L44.2142 55.5171ZM42.8123 55.9144C42.7791 55.4266 42.7499 54.9343 42.7248 54.4376L41.5899 54.495C41.6153 54.9982 41.6449 55.4972 41.6786 55.9916L42.8123 55.9144ZM42.6259 51.48C42.6178 50.99 42.6137 50.4967 42.6137 50H41.4773C41.4773 50.5029 41.4815 51.0026 41.4897 51.4988L42.6259 51.48ZM42.2799 61.7731C42.3513 62.2765 42.4271 62.7732 42.507 63.2629L43.6285 63.0798C43.5499 62.598 43.4753 62.1091 43.405 61.6135L42.2799 61.7731ZM43.0589 66.2268C43.2732 67.2451 43.5062 68.2256 43.7561 69.1645L44.8543 68.8722C44.6097 67.9536 44.3813 66.9926 44.171 65.9928L43.0589 66.2268ZM44.625 72.0631C44.7904 72.5545 44.961 73.0306 45.1363 73.4908L46.1982 73.0863C46.0284 72.6406 45.8629 72.1785 45.702 71.7005L44.625 72.0631ZM45.1363 73.4908C45.3517 74.0562 45.5701 74.5865 45.7899 75.0825L46.8288 74.6222C46.6176 74.1454 46.4068 73.6338 46.1982 73.0863L45.1363 73.4908ZM47.4198 78.1444C47.7841 78.7024 48.1438 79.1739 48.4918 79.5603L49.3362 78.7998C49.0341 78.4644 48.7095 78.0411 48.3713 77.5231L47.4198 78.1444ZM48.4918 79.5603C48.5839 79.6624 48.6717 79.7553 48.7554 79.8396L49.5621 79.0392C49.4919 78.9685 49.4166 78.889 49.3362 78.7998L48.4918 79.5603ZM49.3622 80.3691C49.5258 80.4873 49.6617 80.5631 49.7696 80.6109L50.2305 79.5722C50.2047 79.5608 50.1368 79.5268 50.0277 79.448L49.3622 80.3691ZM50.2305 80.6109C50.3384 80.5631 50.4743 80.4873 50.6378 80.3691L49.9724 79.448C49.8633 79.5268 49.7954 79.5608 49.7696 79.5722L50.2305 80.6109ZM51.2447 79.8396C51.3284 79.7553 51.4162 79.6624 51.5083 79.5603L50.6639 78.7998C50.5835 78.889 50.5082 78.9685 50.438 79.0392L51.2447 79.8396ZM51.5083 79.5603C51.8563 79.1739 52.2159 78.7024 52.5803 78.1444L51.6287 77.5231C51.2906 78.0411 50.966 78.4644 50.6639 78.7998L51.5083 79.5603ZM54.2102 75.0825C54.43 74.5865 54.6484 74.0562 54.8638 73.4908L53.8019 73.0863C53.5933 73.6338 53.3825 74.1454 53.1712 74.6222L54.2102 75.0825ZM54.8638 73.4908C55.0391 73.0306 55.2096 72.5545 55.3751 72.0631L54.2981 71.7005C54.1372 72.1785 53.9716 72.6406 53.8019 73.0863L54.8638 73.4908ZM56.2439 69.1645C56.4939 68.2256 56.7269 67.2451 56.9411 66.2268L55.8291 65.9928C55.6188 66.9926 55.3904 67.9536 55.1458 68.8722L56.2439 69.1645ZM57.4931 63.2629C57.573 62.7732 57.6488 62.2765 57.7202 61.7731L56.5951 61.6135C56.5248 62.1091 56.4502 62.598 56.3715 63.0798L57.4931 63.2629ZM57.1193 61.1264C56.5319 61.1661 55.9392 61.2011 55.3416 61.231L55.3985 62.366C56.0027 62.3357 56.602 62.3004 57.196 62.2602L57.1193 61.1264ZM51.7814 61.3491C51.1913 61.3588 50.5974 61.3637 50 61.3637V62.5C50.6036 62.5 51.2037 62.4951 51.8001 62.4853L51.7814 61.3491ZM50 61.3637C49.4027 61.3637 48.8088 61.3588 48.2187 61.3491L48.2 62.4853C48.7964 62.4951 49.3965 62.5 50 62.5V61.3637ZM44.6585 61.231C44.0609 61.2011 43.4682 61.1661 42.8808 61.1264L42.8041 62.2602C43.3981 62.3004 43.9974 62.3357 44.6016 62.366L44.6585 61.231ZM64.0542 55.3505C64.0793 54.9075 64.1014 54.4618 64.1203 54.0137L62.985 53.9657C62.9663 54.4084 62.9445 54.8486 62.9197 55.2861L64.0542 55.3505ZM64.1953 51.3382C64.2015 50.8941 64.2046 50.448 64.2046 50H63.0682C63.0682 50.4428 63.0651 50.8836 63.059 51.3224L64.1953 51.3382ZM64.2046 50C64.2046 49.552 64.2015 49.1059 64.1953 48.6619L63.059 48.6777C63.0651 49.1165 63.0682 49.5573 63.0682 50H64.2046ZM64.1203 45.9864C64.1014 45.5383 64.0793 45.0926 64.0542 44.6496L62.9197 44.7139C62.9445 45.1515 62.9663 45.5917 62.985 46.0344L64.1203 45.9864ZM63.4051 45.244C63.8317 45.3061 64.2527 45.3709 64.6679 45.4384L64.8502 44.3168C64.4287 44.2482 64.0014 44.1824 63.5687 44.1195L63.4051 45.244ZM67.1797 45.8928C68.0408 46.0653 68.8713 46.2496 69.6687 46.4446L69.9387 45.3408C69.125 45.1418 68.2788 44.954 67.4028 44.7786L67.1797 45.8928ZM72.1248 47.1099C72.5402 47.2343 72.9437 47.3619 73.3348 47.4922L73.6942 46.4142C73.2916 46.28 72.877 46.149 72.4509 46.0213L72.1248 47.1099ZM73.3348 47.4922C73.882 47.6746 74.3936 47.8589 74.8706 48.0433L75.2805 46.9835C74.786 46.7922 74.2575 46.602 73.6942 46.4142L73.3348 47.4922ZM77.8021 49.4011C78.3401 49.7063 78.7748 49.9972 79.1139 50.2645L79.8173 49.372C79.4243 49.0622 78.9399 48.7401 78.3629 48.4128L77.8021 49.4011ZM79.1139 50.2645C79.1318 50.2785 79.1491 50.2923 79.1661 50.3059L79.8774 49.4198C79.8578 49.404 79.8378 49.3881 79.8173 49.372L79.1139 50.2645ZM79.2683 50.3896C79.2855 50.404 79.3022 50.4181 79.3183 50.4319L80.0568 49.5682C80.0374 49.5517 80.0176 49.5349 79.9972 49.5178L79.2683 50.3896ZM79.3183 49.5682C79.3022 49.582 79.2855 49.596 79.2683 49.6104L79.9972 50.4823C80.0176 50.4652 80.0374 50.4484 80.0568 50.4319L79.3183 49.5682ZM79.1661 49.6942C79.1491 49.7077 79.1318 49.7216 79.1139 49.7356L79.8173 50.6281C79.8378 50.612 79.8578 50.596 79.8774 50.5803L79.1661 49.6942ZM79.1139 49.7356C78.7748 50.0029 78.3401 50.2938 77.8021 50.5989L78.3629 51.5873C78.9399 51.26 79.4243 50.9379 79.8173 50.6281L79.1139 49.7356ZM74.8706 51.9567C74.3936 52.1412 73.882 52.3255 73.3348 52.5078L73.6942 53.5859C74.2575 53.3981 74.786 53.2079 75.2805 53.0166L74.8706 51.9567ZM73.3348 52.5078C72.9437 52.6382 72.5402 52.7657 72.1248 52.8902L72.4509 53.9788C72.877 53.8511 73.2916 53.7201 73.6942 53.5859L73.3348 52.5078ZM69.6687 53.5555C68.8713 53.7505 68.0408 53.9348 67.1797 54.1073L67.4028 55.2215C68.2788 55.0461 69.125 54.8583 69.9387 54.6593L69.6687 53.5555ZM64.6679 54.5617C64.2527 54.6292 63.8317 54.694 63.4051 54.7561L63.5687 55.8806C64.0014 55.8176 64.4287 55.7519 64.8502 55.6833L64.6679 54.5617ZM49.3369 80.1378C49.3462 80.5068 49.6562 80.6367 49.6996 80.6535C49.7785 80.6841 49.8453 80.6891 49.8638 80.6905C49.9134 80.6941 49.9524 80.6902 49.9635 80.6891L49.8509 79.5584C49.8604 79.5574 49.8983 79.5536 49.9472 79.5572C49.9654 79.5585 50.0318 79.5635 50.1106 79.594C50.1506 79.6096 50.2288 79.6448 50.3045 79.7197C50.3904 79.8046 50.4687 79.9385 50.473 80.1094L49.3369 80.1378ZM50.02 80.6808C50.025 80.6798 50.0297 80.6789 50.0341 80.6779L49.7937 79.5673C49.7965 79.5667 49.7997 79.566 49.8033 79.5653L50.02 80.6808ZM50.0348 80.6778C50.0424 80.6761 50.0497 80.6744 50.0566 80.6727L49.7807 79.5703C49.784 79.5695 49.7882 79.5685 49.793 79.5674L50.0348 80.6778ZM50.0876 80.6642C50.0919 80.663 50.0961 80.6617 50.1003 80.6604L49.7649 79.5747C49.7659 79.5744 49.767 79.574 49.7683 79.5737L50.0876 80.6642ZM49.8581 79.5543C49.8512 79.5552 49.8443 79.5562 49.8374 79.5573L50.0137 80.6799C50.0111 80.6803 50.0089 80.6806 50.007 80.6808L49.8581 79.5543ZM49.7765 79.5694C49.7643 79.5724 49.7399 79.5786 49.7108 79.5893C49.6995 79.5935 49.6658 79.606 49.6261 79.6284C49.6087 79.6383 49.5638 79.6644 49.5158 79.7096C49.4926 79.7313 49.3296 79.8814 49.337 80.1398L50.4729 80.1074C50.4768 80.2439 50.4314 80.3491 50.395 80.4111C50.3589 80.4726 50.3188 80.5143 50.2943 80.5373C50.2465 80.5823 50.2018 80.6084 50.1846 80.618C50.1455 80.6402 50.1126 80.6523 50.1024 80.6561C50.0755 80.6659 50.0544 80.6712 50.0467 80.6731L49.7765 79.5694ZM49.5272 80.1075C49.5364 79.781 49.7876 79.6399 49.8565 79.608C49.939 79.5699 50.0103 79.5615 50.0313 79.5592C50.0851 79.5532 50.1272 79.5565 50.1375 79.5573C50.1684 79.5597 50.1914 79.5642 50.1987 79.5657L49.9776 80.6803C49.9896 80.6827 50.0161 80.6877 50.0493 80.6903C50.0608 80.6912 50.1037 80.6946 50.1581 80.6885C50.1794 80.6861 50.2509 80.6777 50.3335 80.6395C50.4026 80.6075 50.6539 80.4663 50.6631 80.1397L49.5272 80.1075ZM50.2295 79.573C50.2316 79.5736 50.2334 79.5741 50.2348 79.5746L49.9002 80.6605C49.9065 80.6625 49.9129 80.6644 49.9192 80.6662L50.2295 79.573ZM49.9933 80.6809C49.9914 80.6806 49.9891 80.6803 49.9865 80.6799L50.1626 79.5572C50.1556 79.5561 50.1487 79.5551 50.1417 79.5542L49.9933 80.6809ZM49.9533 80.6731C49.9455 80.6712 49.9244 80.6659 49.8974 80.656C49.8871 80.6522 49.8542 80.64 49.8149 80.6177C49.7978 80.608 49.7529 80.5819 49.705 80.5366C49.6804 80.5134 49.6403 80.4715 49.6042 80.4096C49.5678 80.3471 49.5227 80.2415 49.5273 80.1047L50.663 80.1425C50.6716 79.8833 50.5084 79.7323 50.4851 79.7103C50.437 79.6649 50.392 79.6386 50.3745 79.6287C50.3347 79.6062 50.301 79.5936 50.2896 79.5894C50.2604 79.5787 50.236 79.5724 50.2237 79.5694L49.9533 80.6731ZM50.2349 20.4255C50.2335 20.426 50.2317 20.4265 50.2295 20.4271L49.9192 19.3339C49.9128 19.3357 49.9064 19.3376 49.9001 19.3396L50.2349 20.4255ZM50.1987 20.4344C50.1913 20.4359 50.1682 20.4404 50.1373 20.4428C50.127 20.4436 50.0847 20.4469 50.0308 20.4408C50.0097 20.4385 49.9381 20.43 49.8553 20.3915C49.7854 20.3589 49.5348 20.2165 49.5271 19.8898L50.6632 19.8631C50.6555 19.5363 50.4048 19.3938 50.3347 19.3612C50.2518 19.3226 50.18 19.3141 50.1586 19.3117C50.1041 19.3055 50.0609 19.3089 50.0495 19.3098C50.0162 19.3124 49.9897 19.3174 49.9776 19.3198L50.1987 20.4344ZM49.5271 19.8898C49.5239 19.7552 49.5686 19.6514 49.6047 19.5897C49.6405 19.5285 49.6802 19.4869 49.7048 19.4637C49.7526 19.4185 49.7973 19.3923 49.8146 19.3825C49.854 19.3602 49.8871 19.3479 49.8974 19.3441C49.9244 19.3342 49.9457 19.3288 49.9535 19.3269L50.2236 20.4307C50.2358 20.4277 50.2603 20.4214 50.2896 20.4107C50.301 20.4065 50.3349 20.3938 50.3749 20.3712C50.3924 20.3612 50.4374 20.3349 50.4853 20.2896C50.5095 20.2668 50.6692 20.1182 50.6632 19.8631L49.5271 19.8898ZM49.9866 19.3202C49.9891 19.3198 49.9913 19.3195 49.9932 19.3192L50.1418 20.4458C50.1487 20.4449 50.1557 20.4439 50.1626 20.4429L49.9866 19.3202ZM49.9049 19.8765L51.0409 19.9087L51.0409 19.9085L49.9049 19.8765ZM49.9326 19.8825L49.7839 21.0091L50.2673 18.7966L49.9326 19.8825ZM50 19.9085L50.461 18.8698H49.5391L50 19.9085ZM48.914 20.8201L48.0696 20.0596L48.0696 20.0596L48.914 20.8201ZM51.0861 20.8201L51.9305 20.0596V20.0596L51.0861 20.8201ZM54.3328 26.7115L55.3947 26.307L54.3328 26.7115ZM57.1576 38.3068L57.081 39.4406L58.2827 38.1472L57.1576 38.3068ZM42.8424 38.3068L41.7173 38.1472L42.9191 39.4406L42.8424 38.3068ZM45.6673 26.7115L46.7292 27.1161L45.6673 26.7115ZM50 14.2046V13.0682V14.2046ZM37.0351 38.8749L37.1812 40.0019L38.1628 39.0153L37.0351 38.8749ZM62.965 38.8749L61.8373 39.0153L62.8189 40.0019L62.965 38.8749ZM62.965 61.1252L62.8189 59.9982L61.8373 60.9848L62.965 61.1252ZM37.0351 61.1252L38.1628 60.9848L37.1812 59.9982L37.0351 61.1252ZM26.4856 53.0469L26.1262 54.1249L26.4856 53.0469ZM36.5132 55.3183L36.3496 56.4429L37.6477 55.254L36.5132 55.3183ZM20.5345 50.1819L21.2379 49.2894L21.2378 49.2894L20.5345 50.1819ZM20.3126 50L19.5741 49.1363L19.5741 50.8637L20.3126 50ZM20.5345 49.8182L21.2378 50.7107L21.2379 50.7107L20.5345 49.8182ZM26.4856 46.9532L26.1262 45.8752H26.1262L26.4856 46.9532ZM36.5132 44.6817L37.6477 44.7461L36.3496 43.5572L36.5132 44.6817ZM42.2455 55.953L41.1117 56.0302L42.157 57.0859L42.2455 55.953ZM42.2455 44.0471L42.157 42.9141L41.1117 43.9699L42.2455 44.0471ZM57.7546 44.0471L58.8884 43.9699L57.8431 42.9141L57.7546 44.0471ZM57.7546 55.953L57.8431 57.0859L58.8884 56.0302L57.7546 55.953ZM42.8424 61.6933L42.9191 60.5595L41.7173 61.8529L42.8424 61.6933ZM45.6673 73.2886L46.7292 72.884L45.6673 73.2886ZM48.914 79.18L48.0696 79.9405H48.0696L48.914 79.18ZM50 80.0916L49.5391 81.1303H50.461L50 80.0916ZM51.0861 79.18L51.9305 79.9405H51.9305L51.0861 79.18ZM54.3328 73.2886L53.2709 72.884L54.3328 73.2886ZM57.1576 61.6933L58.2827 61.8529L57.081 60.5595L57.1576 61.6933ZM63.4869 55.3183L62.3524 55.254L63.6505 56.4429L63.4869 55.3183ZM73.5145 53.0469L73.8739 54.1249L73.5145 53.0469ZM79.4656 50.1819L80.169 51.0744L80.169 51.0744L79.4656 50.1819ZM79.6875 50L80.426 50.8637V49.1364L79.6875 50ZM79.4656 49.8182L80.169 48.9257H80.169L79.4656 49.8182ZM73.5145 46.9532L73.8739 45.8752L73.5145 46.9532ZM63.4869 44.6817L63.6505 43.5572L62.3524 44.7461L63.4869 44.6817ZM49.9049 80.1236L51.041 80.0952L51.0408 80.0912L49.9049 80.1236ZM49.9326 80.1175L50.268 81.2033L49.7837 78.991L49.9326 80.1175ZM49.9139 80.1226L50.1544 81.2332L50.1557 81.2329L49.9139 80.1226ZM50.0951 80.1236L48.9594 80.0858L48.9592 80.0915L50.0951 80.1236ZM50.0675 80.1175L50.216 78.9909L49.7329 81.2035L50.0675 80.1175ZM50.0675 19.8825L49.7327 18.7966L50.2161 21.0091L50.0675 19.8825ZM51.0409 19.9085C51.0225 20.5601 50.5221 20.8428 50.3831 20.9073C50.2179 20.9839 50.075 21.0007 50.0327 21.0055C49.9247 21.0177 49.8398 21.0109 49.8186 21.0092C49.7556 21.0043 49.7077 20.9951 49.6907 20.9917L50.1331 18.7625C50.1115 18.7582 50.0601 18.7484 49.9948 18.7433C49.9724 18.7416 49.8867 18.7348 49.7781 18.7471C49.7354 18.7519 49.5923 18.7688 49.427 18.8454C49.2879 18.91 48.7874 19.1927 48.769 19.8444L51.0409 19.9085ZM49.6154 20.9737C49.609 20.9719 49.6031 20.9701 49.5978 20.9685L50.2673 18.7966C50.2571 18.7935 50.2467 18.7904 50.2361 18.7874L49.6154 20.9737ZM50.0812 18.7559C50.0875 18.7568 50.0943 18.7578 50.1016 18.7589L49.7494 21.0042C49.7611 21.006 49.7726 21.0076 49.7839 21.0091L50.0812 18.7559ZM50.1819 18.7751C50.1997 18.7795 50.2437 18.7906 50.2989 18.8109C50.32 18.8187 50.3865 18.8434 50.4655 18.8881C50.5001 18.9078 50.5898 18.9602 50.6857 19.0508C50.7348 19.0973 50.8147 19.1808 50.8865 19.3039C50.959 19.4282 51.0485 19.6375 51.0409 19.9087L48.769 19.8442C48.7545 20.3581 49.0768 20.6575 49.1244 20.7025C49.2205 20.7932 49.3103 20.8458 49.3452 20.8656C49.4248 20.9106 49.492 20.9357 49.5143 20.9439C49.5717 20.965 49.619 20.9771 49.6412 20.9826L50.1819 18.7751ZM49.5391 18.8698C49.3902 18.9359 49.2203 19.0326 49.0295 19.1704L50.3604 21.0127C50.4424 20.9535 50.4762 20.9404 50.461 20.9472L49.5391 18.8698ZM48.3521 19.7603C48.2616 19.8514 48.1675 19.9509 48.0696 20.0596L49.7584 21.5806C49.833 21.4978 49.902 21.425 49.9654 21.3611L48.3521 19.7603ZM48.0696 20.0596C47.6987 20.4714 47.3215 20.967 46.944 21.5451L48.8471 22.7876C49.1722 22.2896 49.4792 21.8905 49.7584 21.5806L48.0696 20.0596ZM45.2704 24.6874C45.0464 25.193 44.8241 25.7327 44.6053 26.307L46.7292 27.1161C46.9343 26.5775 47.1413 26.0752 47.3483 25.6081L45.2704 24.6874ZM44.6053 26.307C44.4273 26.7745 44.2542 27.2576 44.0865 27.7557L46.2404 28.4809C46.3991 28.0096 46.5622 27.5545 46.7292 27.1161L44.6053 26.307ZM43.2071 30.6894C42.9544 31.6385 42.7191 32.6287 42.5029 33.6564L44.727 34.1242C44.9353 33.1338 45.1615 32.1825 45.4033 31.274L43.2071 30.6894ZM41.9463 36.6457C41.8657 37.1393 41.7893 37.6399 41.7173 38.1472L43.9675 38.4664C44.0373 37.9746 44.1113 37.4896 44.1893 37.0118L41.9463 36.6457ZM42.9191 39.4406C43.5032 39.4011 44.0926 39.3663 44.6869 39.3365L44.5731 37.0667C43.9657 37.0971 43.3631 37.1326 42.7657 37.173L42.9191 39.4406ZM48.228 39.2191C48.815 39.2095 49.4058 39.2046 50 39.2046V36.9319C49.3934 36.9319 48.7901 36.9368 48.1907 36.9467L48.228 39.2191ZM50 39.2046C50.5943 39.2046 51.1851 39.2095 51.7721 39.2191L51.8094 36.9467C51.2099 36.9368 50.6067 36.9319 50 36.9319V39.2046ZM55.3131 39.3365C55.9075 39.3663 56.4969 39.4011 57.081 39.4406L57.2343 37.173C56.637 37.1326 56.0344 37.0971 55.427 37.0667L55.3131 39.3365ZM58.2827 38.1472C58.2108 37.6399 58.1344 37.1393 58.0538 36.6457L55.8108 37.0118C55.8888 37.4896 55.9628 37.9746 56.0326 38.4664L58.2827 38.1472ZM57.4972 33.6564C57.281 32.6287 57.0457 31.6385 56.793 30.6894L54.5968 31.274C54.8386 32.1825 55.0647 33.1338 55.2731 34.1242L57.4972 33.6564ZM55.9136 27.7557C55.7459 27.2576 55.5728 26.7745 55.3947 26.307L53.2709 27.1161C53.4379 27.5545 53.601 28.0096 53.7597 28.4809L55.9136 27.7557ZM55.3947 26.307C55.1759 25.7327 54.9537 25.193 54.7296 24.6874L52.6518 25.6081C52.8588 26.0752 53.0657 26.5775 53.2709 27.1161L55.3947 26.307ZM53.056 21.5451C52.6786 20.967 52.3014 20.4714 51.9305 20.0596L50.2417 21.5806C50.5209 21.8905 50.8279 22.2896 51.153 22.7876L53.056 21.5451ZM51.9305 20.0596C51.8326 19.9509 51.7385 19.8514 51.648 19.7603L50.0347 21.3611C50.0981 21.425 50.1671 21.4978 50.2417 21.5806L51.9305 20.0596ZM50.9706 19.1704C50.7798 19.0326 50.6098 18.9359 50.461 18.8698L49.5391 20.9472C49.5239 20.9404 49.5577 20.9535 49.6397 21.0127L50.9706 19.1704ZM50 13.0682C49.3985 13.0682 48.8072 13.1524 48.2302 13.314L48.8431 15.5026C49.2276 15.3949 49.6128 15.341 50 15.341V13.0682ZM45.2311 14.9298C44.4451 15.5708 43.7047 16.3592 43.0111 17.2686L44.8183 18.6469C45.4253 17.851 46.0447 17.1989 46.6674 16.6911L45.2311 14.9298ZM41.3104 19.8946C40.8352 20.7491 40.3837 21.6718 39.9574 22.6556L42.0428 23.5592C42.4427 22.6363 42.8617 21.7814 43.2966 20.9993L41.3104 19.8946ZM38.8535 25.4991C38.5322 26.4231 38.2293 27.3884 37.946 28.3909L40.1332 29.0088C40.4049 28.0468 40.6945 27.1246 41.0001 26.2457L38.8535 25.4991ZM37.1993 31.3191C36.9799 32.2764 36.777 33.2613 36.5916 34.2712L38.8269 34.6817C39.0066 33.7031 39.2029 32.7507 39.4146 31.8268L37.1993 31.3191ZM36.1069 37.2433C36.0364 37.7356 35.9699 38.2327 35.9075 38.7346L38.1628 39.0153C38.2235 38.5271 38.2882 38.0438 38.3567 37.5656L36.1069 37.2433ZM36.8891 37.748C36.435 37.8068 35.9851 37.8687 35.5399 37.9334L35.8668 40.1825C36.3003 40.1194 36.7385 40.0592 37.1812 40.0019L36.8891 37.748ZM32.8485 38.3697C31.9325 38.5342 31.0392 38.7116 30.1708 38.9012L30.6555 41.1216C31.4953 40.9383 32.3608 40.7664 33.2502 40.6067L32.8485 38.3697ZM27.5133 39.5399C26.5989 39.7811 25.7181 40.0371 24.8741 40.3071L25.5664 42.4718C26.3708 42.2145 27.2139 41.9694 28.0931 41.7374L27.5133 39.5399ZM22.2719 41.2295C21.3659 41.5857 20.5144 41.9613 19.7234 42.3552L20.7367 44.3896C21.4616 44.0285 22.2518 43.6795 23.1033 43.3447L22.2719 41.2295ZM17.2716 43.7672C16.4019 44.3524 15.6407 44.978 15.0133 45.6444L16.6681 47.2022C17.1559 46.684 17.7796 46.1647 18.5403 45.6529L17.2716 43.7672ZM13.3421 48.3236C13.1629 48.8664 13.0682 49.427 13.0682 50H15.341C15.341 49.6807 15.3932 49.3604 15.5002 49.0362L13.3421 48.3236ZM13.0682 50C13.0682 50.5731 13.1629 51.1337 13.3421 51.6764L15.5002 50.9639C15.3932 50.6397 15.341 50.3194 15.341 50H13.0682ZM15.0133 54.3557C15.6407 55.0221 16.4019 55.6477 17.2716 56.2329L18.5403 54.3472C17.7796 53.8353 17.1559 53.3161 16.6681 52.7979L15.0133 54.3557ZM19.7234 57.6448C20.5144 58.0388 21.3659 58.4144 22.2719 58.7705L23.1033 56.6553C22.2518 56.3206 21.4616 55.9716 20.7367 55.6105L19.7234 57.6448ZM24.8741 59.693C25.7181 59.9629 26.5989 60.219 27.5133 60.4602L28.0931 58.2626C27.2139 58.0307 26.3708 57.7855 25.5664 57.5283L24.8741 59.693ZM30.1708 61.0989C31.0392 61.2885 31.9325 61.4659 32.8485 61.6303L33.2502 59.3934C32.3608 59.2337 31.4953 59.0618 30.6555 58.8785L30.1708 61.0989ZM35.5399 62.0667C35.9852 62.1314 36.435 62.1933 36.8891 62.2521L37.1812 59.9982C36.7385 59.9409 36.3004 59.8806 35.8668 59.8176L35.5399 62.0667ZM35.9075 61.2655C35.9699 61.7674 36.0364 62.2645 36.1069 62.7567L38.3567 62.4345C38.2882 61.9563 38.2235 61.4729 38.1628 60.9848L35.9075 61.2655ZM36.5916 65.7288C36.777 66.7388 36.9799 67.7237 37.1993 68.681L39.4146 68.1733C39.2029 67.2494 39.0066 66.2969 38.8269 65.3184L36.5916 65.7288ZM37.946 71.6092C38.2293 72.6117 38.5322 73.577 38.8535 74.501L41.0001 73.7544C40.6945 72.8755 40.4049 71.9533 40.1332 70.9913L37.946 71.6092ZM39.9574 77.3444C40.3837 78.3283 40.8352 79.251 41.3104 80.1055L43.2966 79.0008C42.8617 78.2187 42.4427 77.3638 42.0428 76.4408L39.9574 77.3444ZM43.0111 82.7315C43.7047 83.6408 44.4451 84.4293 45.2311 85.0703L46.6674 83.309C46.0447 82.8012 45.4253 82.1491 44.8183 81.3532L43.0111 82.7315ZM48.2302 86.686C48.8072 86.8477 49.3985 86.9319 50 86.9319V84.6591C49.6128 84.6591 49.2276 84.6052 48.8431 84.4975L48.2302 86.686ZM50 86.9319C50.6016 86.9319 51.1929 86.8477 51.7699 86.686L51.157 84.4975C50.7725 84.6052 50.3873 84.6591 50 84.6591V86.9319ZM54.769 85.0703C55.555 84.4293 56.2954 83.6408 56.989 82.7315L55.1818 81.3532C54.5748 82.1491 53.9554 82.8012 53.3327 83.309L54.769 85.0703ZM58.6896 80.1055C59.1649 79.251 59.6164 78.3283 60.0427 77.3444L57.9573 76.4408C57.5574 77.3638 57.1384 78.2187 56.7034 79.0008L58.6896 80.1055ZM61.1465 74.501C61.4679 73.577 61.7708 72.6117 62.0541 71.6092L59.8669 70.9913C59.5951 71.9533 59.3056 72.8755 59 73.7544L61.1465 74.501ZM62.8008 68.681C63.0202 67.7237 63.2231 66.7388 63.4085 65.7288L61.1732 65.3184C60.9935 66.2969 60.7972 67.2494 60.5855 68.1733L62.8008 68.681ZM63.8931 62.7567C63.9636 62.2645 64.0302 61.7674 64.0926 61.2655L61.8373 60.9848C61.7766 61.4729 61.7119 61.9563 61.6434 62.4345L63.8931 62.7567ZM63.111 62.2521C63.5651 62.1933 64.0149 62.1314 64.4602 62.0667L64.1333 59.8176C63.6997 59.8806 63.2616 59.9409 62.8189 59.9982L63.111 62.2521ZM67.1516 61.6303C68.0676 61.4659 68.9609 61.2885 69.8293 61.0989L69.3445 58.8785C68.5048 59.0618 67.6393 59.2337 66.7499 59.3934L67.1516 61.6303ZM72.4868 60.4602C73.4011 60.219 74.282 59.9629 75.126 59.693L74.4336 57.5283C73.6293 57.7855 72.7862 58.0307 71.907 58.2626L72.4868 60.4602ZM77.7282 58.7705C78.6342 58.4144 79.4857 58.0388 80.2767 57.6448L79.2634 55.6105C78.5385 55.9716 77.7483 56.3206 76.8968 56.6553L77.7282 58.7705ZM82.7284 56.2329C83.5982 55.6477 84.3594 55.0221 84.9868 54.3557L83.332 52.7979C82.8442 53.3161 82.2205 53.8353 81.4597 54.3472L82.7284 56.2329ZM86.658 51.6764C86.8372 51.1337 86.9319 50.5731 86.9319 50H84.6591C84.6591 50.3194 84.6069 50.6397 84.4998 50.9639L86.658 51.6764ZM86.9319 50C86.9319 49.427 86.8372 48.8664 86.658 48.3236L84.4998 49.0362C84.6069 49.3604 84.6591 49.6807 84.6591 50H86.9319ZM84.9868 45.6444C84.3594 44.978 83.5982 44.3524 82.7284 43.7672L81.4597 45.6529C82.2205 46.1647 82.8442 46.684 83.332 47.2022L84.9868 45.6444ZM80.2767 42.3552C79.4857 41.9613 78.6342 41.5857 77.7282 41.2295L76.8968 43.3447C77.7483 43.6795 78.5385 44.0285 79.2634 44.3896L80.2767 42.3552ZM75.126 40.3071C74.282 40.0371 73.4011 39.7811 72.4868 39.5399L71.907 41.7374C72.7862 41.9694 73.6293 42.2145 74.4336 42.4718L75.126 40.3071ZM69.8293 38.9012C68.9609 38.7116 68.0676 38.5342 67.1515 38.3697L66.7499 40.6067C67.6393 40.7664 68.5048 40.9383 69.3445 41.1216L69.8293 38.9012ZM64.4602 37.9334C64.0149 37.8687 63.5651 37.8068 63.111 37.748L62.8189 40.0019C63.2616 40.0592 63.6997 40.1194 64.1333 40.1825L64.4602 37.9334ZM64.0926 38.7346C64.0302 38.2327 63.9636 37.7356 63.8931 37.2433L61.6434 37.5656C61.7119 38.0438 61.7766 38.5271 61.8373 39.0153L64.0926 38.7346ZM63.4085 34.2712C63.2231 33.2613 63.0202 32.2764 62.8008 31.3191L60.5855 31.8268C60.7972 32.7507 60.9935 33.7031 61.1732 34.6817L63.4085 34.2712ZM62.054 28.3909C61.7708 27.3884 61.4679 26.4231 61.1465 25.4991L59 26.2457C59.3056 27.1246 59.5951 28.0467 59.8669 29.0088L62.054 28.3909ZM60.0427 22.6556C59.6164 21.6718 59.1649 20.7491 58.6896 19.8946L56.7034 20.9993C57.1384 21.7814 57.5574 22.6363 57.9573 23.5592L60.0427 22.6556ZM56.9889 17.2686C56.2954 16.3592 55.555 15.5708 54.769 14.9298L53.3326 16.6911C53.9554 17.1989 54.5748 17.8509 55.1818 18.6469L56.9889 17.2686ZM51.7699 13.314C51.1928 13.1524 50.6016 13.0682 50 13.0682V15.341C50.3873 15.341 50.7725 15.3949 51.157 15.5026L51.7699 13.314ZM26.8449 51.9688C26.3059 51.7891 25.8027 51.6079 25.3345 51.4268L24.5146 53.5465C25.0179 53.7412 25.5549 53.9345 26.1262 54.1249L26.8449 51.9688ZM22.4783 50.1047C21.9599 49.8106 21.5501 49.5354 21.2379 49.2894L19.8311 51.0744C20.251 51.4053 20.7603 51.7431 21.3569 52.0815L22.4783 50.1047ZM21.2378 49.2894C21.2213 49.2763 21.2053 49.2636 21.1897 49.2511L19.7669 51.0234C19.7879 51.0402 19.8093 51.0572 19.8311 51.0744L21.2378 49.2894ZM21.0962 49.1745C21.0806 49.1615 21.0655 49.1487 21.0511 49.1364L19.5741 50.8637C19.595 50.8816 19.6165 50.8998 19.6385 50.9182L21.0962 49.1745ZM21.051 50.8638C21.0655 50.8514 21.0806 50.8386 21.0962 50.8256L19.6385 49.0819C19.6165 49.1003 19.595 49.1184 19.5741 49.1363L21.051 50.8638ZM21.1897 50.749C21.2053 50.7365 21.2213 50.7237 21.2378 50.7107L19.8311 48.9257C19.8093 48.9429 19.7879 48.9599 19.7669 48.9767L21.1897 50.749ZM21.2379 50.7107C21.5501 50.4647 21.9599 50.1894 22.4783 49.8953L21.3569 47.9186C20.7603 48.257 20.251 48.5947 19.8311 48.9257L21.2379 50.7107ZM25.3345 48.5733C25.8027 48.3922 26.3059 48.211 26.8449 48.0313L26.1262 45.8752C25.5549 46.0656 25.0179 46.2589 24.5146 46.4536L25.3345 48.5733ZM26.8449 48.0313C27.2303 47.9028 27.6283 47.777 28.0383 47.6542L27.3861 45.477C26.9547 45.6063 26.5346 45.739 26.1262 45.8752L26.8449 48.0313ZM30.4663 46.9965C31.2556 46.8035 32.0783 46.6209 32.932 46.45L32.4858 44.2215C31.6023 44.3984 30.7483 44.5878 29.9264 44.7889L30.4663 46.9965ZM35.4234 45.9992C35.8354 45.9322 36.2533 45.8679 36.6768 45.8063L36.3496 43.5572C35.9138 43.6206 35.4834 43.6869 35.0587 43.7559L35.4234 45.9992ZM35.3786 44.6174C35.3533 45.0632 35.3311 45.5116 35.3121 45.9624L37.5828 46.0583C37.6014 45.6184 37.623 45.1809 37.6477 44.7461L35.3786 44.6174ZM35.2367 48.654C35.2304 49.1007 35.2273 49.5494 35.2273 50H37.5C37.5 49.56 37.5031 49.1218 37.5092 48.6856L35.2367 48.654ZM35.2273 50C35.2273 50.4507 35.2304 50.8994 35.2367 51.3461L37.5092 51.3145C37.5031 50.8783 37.5 50.4401 37.5 50H35.2273ZM35.3121 54.0377C35.3311 54.4885 35.3533 54.9369 35.3786 55.3827L37.6477 55.254C37.623 54.8191 37.6014 54.3817 37.5828 53.9417L35.3121 54.0377ZM36.6768 54.1938C36.2533 54.1322 35.8354 54.0679 35.4234 54.0009L35.0587 56.2442C35.4834 56.3132 35.9138 56.3795 36.3496 56.4429L36.6768 54.1938ZM32.932 53.5501C32.0783 53.3792 31.2556 53.1966 30.4663 53.0036L29.9264 55.2112C30.7483 55.4122 31.6023 55.6017 32.4858 55.7786L32.932 53.5501ZM28.0383 52.3459C27.6283 52.2231 27.2303 52.0973 26.8449 51.9688L26.1262 54.1249C26.5346 54.261 26.9547 54.3938 27.3861 54.523L28.0383 52.3459ZM43.1819 50C43.1819 49.5066 43.1859 49.0163 43.194 48.5295L40.9216 48.4919C40.9133 48.9912 40.9091 49.494 40.9091 50H43.1819ZM43.2923 45.5911C43.3172 45.0978 43.3462 44.6088 43.3792 44.1242L41.1117 43.9699C41.0778 44.4677 41.048 44.9699 41.0224 45.4764L43.2923 45.5911ZM42.3339 45.18C42.9635 45.1308 43.6013 45.0875 44.2469 45.0502L44.116 42.7813C43.4552 42.8194 42.802 42.8638 42.157 42.9141L42.3339 45.18ZM48.0809 44.9044C48.7149 44.8925 49.3548 44.8864 50 44.8864V42.6137C49.3405 42.6137 48.6864 42.6199 48.0382 42.6321L48.0809 44.9044ZM50 44.8864C50.6453 44.8864 51.2852 44.8925 51.9192 44.9044L51.9619 42.6321C51.3136 42.6199 50.6595 42.6137 50 42.6137V44.8864ZM55.7532 45.0502C56.3988 45.0875 57.0366 45.1308 57.6661 45.18L57.8431 42.9141C57.1981 42.8638 56.5449 42.8194 55.884 42.7813L55.7532 45.0502ZM56.6209 44.1242C56.6539 44.6087 56.6829 45.0978 56.7078 45.5911L58.9776 45.4764C58.952 44.9699 58.9222 44.4677 58.8884 43.9699L56.6209 44.1242ZM56.8061 48.5295C56.8141 49.0163 56.8182 49.5066 56.8182 50H59.091C59.091 49.494 59.0868 48.9912 59.0785 48.4919L56.8061 48.5295ZM56.8182 50C56.8182 50.4935 56.8141 50.9838 56.8061 51.4705L59.0785 51.5082C59.0868 51.0089 59.091 50.5061 59.091 50H56.8182ZM56.7078 54.409C56.6829 54.9023 56.6539 55.3913 56.6209 55.8759L58.8884 56.0302C58.9222 55.5324 58.952 55.0302 58.9776 54.5237L56.7078 54.409ZM57.6661 54.8201C57.0366 54.8693 56.3988 54.9126 55.7532 54.9498L55.884 57.2188C56.5449 57.1807 57.1981 57.1363 57.8431 57.0859L57.6661 54.8201ZM51.9192 55.0957C51.2852 55.1076 50.6453 55.1137 50 55.1137V57.3864C50.6595 57.3864 51.3136 57.3802 51.9619 57.368L51.9192 55.0957ZM50 55.1137C49.3548 55.1137 48.7149 55.1076 48.0809 55.0957L48.0382 57.368C48.6864 57.3802 49.3405 57.3864 50 57.3864V55.1137ZM44.2469 54.9498C43.6013 54.9126 42.9635 54.8693 42.3339 54.8201L42.157 57.0859C42.802 57.1363 43.4552 57.1807 44.116 57.2188L44.2469 54.9498ZM43.3792 55.8759C43.3462 55.3913 43.3172 54.9023 43.2923 54.409L41.0224 54.5237C41.048 55.0302 41.0778 55.5324 41.1117 56.0302L43.3792 55.8759ZM43.194 51.4705C43.1859 50.9838 43.1819 50.4935 43.1819 50H40.9091C40.9091 50.5061 40.9133 51.0089 40.9216 51.5082L43.194 51.4705ZM41.7173 61.8529C41.7893 62.3602 41.8657 62.8608 41.9463 63.3544L44.1893 62.9882C44.1113 62.5104 44.0373 62.0255 43.9675 61.5336L41.7173 61.8529ZM42.5029 66.3437C42.7191 67.3714 42.9544 68.3616 43.2071 69.3107L45.4033 68.7261C45.1615 67.8176 44.9353 66.8663 44.727 65.8759L42.5029 66.3437ZM44.0865 72.2444C44.2542 72.7425 44.4273 73.2256 44.6054 73.6931L46.7292 72.884C46.5622 72.4456 46.3991 71.9905 46.2404 71.5192L44.0865 72.2444ZM44.6054 73.6931C44.8241 74.2674 45.0464 74.807 45.2705 75.3127L47.3483 74.392C47.1413 73.9249 46.9343 73.4226 46.7292 72.884L44.6054 73.6931ZM46.944 78.455C47.3215 79.0331 47.6987 79.5287 48.0696 79.9405L49.7584 78.4195C49.4792 78.1096 49.1722 77.7105 48.8471 77.2125L46.944 78.455ZM48.0696 79.9405C48.1675 80.0492 48.2616 80.1487 48.3521 80.2398L49.9654 78.639C49.902 78.5751 49.833 78.5023 49.7584 78.4195L48.0696 79.9405ZM49.0295 80.8297C49.2203 80.9675 49.3902 81.0642 49.5391 81.1303L50.461 79.0529C50.4762 79.0596 50.4424 79.0466 50.3604 78.9874L49.0295 80.8297ZM50.461 81.1303C50.6098 81.0642 50.7798 80.9675 50.9706 80.8297L49.6397 78.9874C49.5577 79.0466 49.5239 79.0596 49.5391 79.0529L50.461 81.1303ZM51.648 80.2398C51.7385 80.1487 51.8326 80.0492 51.9305 79.9405L50.2417 78.4195C50.1671 78.5023 50.0981 78.5751 50.0347 78.639L51.648 80.2398ZM51.9305 79.9405C52.3014 79.5287 52.6786 79.0331 53.056 78.455L51.153 77.2125C50.8279 77.7105 50.5209 78.1096 50.2417 78.4195L51.9305 79.9405ZM54.7296 75.3127C54.9537 74.807 55.1759 74.2674 55.3947 73.6931L53.2709 72.884C53.0657 73.4226 52.8588 73.9249 52.6518 74.392L54.7296 75.3127ZM55.3947 73.6931C55.5728 73.2256 55.7459 72.7425 55.9136 72.2444L53.7597 71.5192C53.601 71.9905 53.4379 72.4456 53.2709 72.884L55.3947 73.6931ZM56.793 69.3107C57.0457 68.3616 57.281 67.3714 57.4972 66.3437L55.2731 65.8759C55.0647 66.8663 54.8386 67.8176 54.5968 68.7261L56.793 69.3107ZM58.0538 63.3544C58.1344 62.8608 58.2108 62.3602 58.2827 61.8529L56.0326 61.5336C55.9628 62.0255 55.8888 62.5104 55.8108 62.9882L58.0538 63.3544ZM57.081 60.5595C56.4969 60.599 55.9075 60.6337 55.3131 60.6636L55.427 62.9334C56.0344 62.903 56.637 62.8675 57.2343 62.8271L57.081 60.5595ZM51.7721 60.781C51.1851 60.7906 50.5943 60.7955 50 60.7955V63.0682C50.6067 63.0682 51.2099 63.0632 51.8094 63.0534L51.7721 60.781ZM50 60.7955C49.4058 60.7955 48.815 60.7906 48.228 60.781L48.1907 63.0534C48.7901 63.0632 49.3934 63.0682 50 63.0682V60.7955ZM44.6869 60.6636C44.0926 60.6337 43.5032 60.599 42.9191 60.5595L42.7657 62.8271C43.3631 62.8675 43.9657 62.903 44.5731 62.9334L44.6869 60.6636ZM64.6215 55.3827C64.6468 54.9369 64.669 54.4885 64.688 54.0377L62.4173 53.9417C62.3987 54.3817 62.3771 54.8191 62.3524 55.254L64.6215 55.3827ZM64.7634 51.3461C64.7696 50.8994 64.7728 50.4507 64.7728 50H62.5C62.5 50.4401 62.497 50.8783 62.4909 51.3145L64.7634 51.3461ZM64.7728 50C64.7728 49.5494 64.7696 49.1007 64.7634 48.654L62.4909 48.6856C62.497 49.1218 62.5 49.56 62.5 50H64.7728ZM64.688 45.9624C64.669 45.5116 64.6468 45.0632 64.6215 44.6174L62.3524 44.7461C62.3771 45.181 62.3987 45.6184 62.4173 46.0583L64.688 45.9624ZM63.3233 45.8063C63.7468 45.8679 64.1647 45.9322 64.5767 45.9992L64.9414 43.7559C64.5167 43.6869 64.0863 43.6206 63.6505 43.5572L63.3233 45.8063ZM67.0681 46.45C67.9218 46.6209 68.7445 46.8035 69.5338 46.9965L70.0737 44.7889C69.2518 44.5878 68.3978 44.3984 67.5143 44.2215L67.0681 46.45ZM71.9618 47.6542C72.3718 47.777 72.7698 47.9028 73.1552 48.0313L73.8739 45.8752C73.4655 45.739 73.0454 45.6063 72.614 45.477L71.9618 47.6542ZM73.1552 48.0313C73.6942 48.211 74.1974 48.3922 74.6656 48.5733L75.4855 46.4536C74.9822 46.2589 74.4452 46.0656 73.8739 45.8752L73.1552 48.0313ZM77.5218 49.8953C78.0402 50.1894 78.45 50.4647 78.7622 50.7107L80.169 48.9257C79.7491 48.5947 79.2398 48.257 78.6432 47.9186L77.5218 49.8953ZM78.7622 50.7107C78.7787 50.7237 78.7948 50.7365 78.8104 50.749L80.2331 48.9767C80.2122 48.9599 80.1908 48.9429 80.169 48.9257L78.7622 50.7107ZM78.9039 50.8256C78.9195 50.8386 78.9345 50.8513 78.949 50.8637L80.426 49.1364C80.4051 49.1185 80.3836 49.1003 80.3616 49.0819L78.9039 50.8256ZM78.949 49.1364C78.9345 49.1487 78.9195 49.1615 78.9039 49.1745L80.3616 50.9182C80.3836 50.8998 80.4051 50.8816 80.426 50.8637L78.949 49.1364ZM78.8104 49.2511C78.7948 49.2636 78.7787 49.2763 78.7622 49.2894L80.169 51.0744C80.1908 51.0572 80.2122 51.0402 80.2331 51.0234L78.8104 49.2511ZM78.7622 49.2894C78.45 49.5354 78.0402 49.8106 77.5218 50.1047L78.6432 52.0815C79.2398 51.7431 79.7491 51.4053 80.169 51.0744L78.7622 49.2894ZM74.6656 51.4268C74.1974 51.6079 73.6942 51.7891 73.1552 51.9688L73.8739 54.1249C74.4452 53.9345 74.9822 53.7412 75.4855 53.5465L74.6656 51.4268ZM73.1552 51.9688C72.7698 52.0973 72.3718 52.2231 71.9618 52.3459L72.614 54.523C73.0454 54.3938 73.4655 54.261 73.8739 54.1249L73.1552 51.9688ZM69.5338 53.0036C68.7445 53.1966 67.9218 53.3792 67.0681 53.5501L67.5143 55.7786C68.3978 55.6017 69.2518 55.4122 70.0737 55.2112L69.5338 53.0036ZM64.5767 54.0009C64.1647 54.0679 63.7468 54.1322 63.3233 54.1938L63.6505 56.4429C64.0863 56.3795 64.5167 56.3132 64.9414 56.2442L64.5767 54.0009ZM48.7689 80.152C48.7874 80.8899 49.4075 81.1496 49.4941 81.1832C49.6519 81.2444 49.7853 81.2544 49.8221 81.2571C49.9209 81.2644 49.9985 81.2567 50.0197 81.2545L49.7946 78.993C49.8144 78.991 49.8908 78.9833 49.9889 78.9905C50.0254 78.9932 50.1585 79.0032 50.3161 79.0643C50.3961 79.0954 50.5525 79.1659 50.704 79.3157C50.8759 79.4856 51.0324 79.7534 51.041 80.0952L48.7689 80.152ZM50.1284 81.2386C50.1377 81.2368 50.1464 81.235 50.1544 81.2332L49.6734 79.012C49.6799 79.0106 49.687 79.0091 49.6949 79.0076L50.1284 81.2386ZM50.1557 81.2329C50.1696 81.2299 50.1826 81.2268 50.1945 81.2238L49.6427 79.0191C49.6512 79.017 49.661 79.0147 49.6722 79.0122L50.1557 81.2329ZM50.2473 81.2095C50.2543 81.2075 50.2612 81.2054 50.268 81.2033L49.5971 79.0318C49.6007 79.0307 49.6046 79.0295 49.6086 79.0284L50.2473 81.2095ZM49.7837 78.991C49.7724 78.9925 49.7609 78.9941 49.7492 78.9959L50.1018 81.2412C50.0945 81.2423 50.0878 81.2433 50.0815 81.2441L49.7837 78.991ZM49.6414 79.0175C49.6192 79.0229 49.5721 79.035 49.5151 79.0559C49.4929 79.064 49.426 79.0889 49.3468 79.1336C49.3121 79.1532 49.2224 79.2055 49.1265 79.2957C49.0803 79.3392 48.7543 79.6393 48.769 80.1561L51.0408 80.0912C51.0487 80.3643 50.9579 80.5746 50.885 80.6987C50.8129 80.8217 50.7327 80.905 50.6836 80.9512C50.5878 81.0413 50.4984 81.0934 50.4639 81.1128C50.3853 81.1572 50.3192 81.1817 50.2981 81.1895C50.2433 81.2096 50.1995 81.2207 50.1817 81.225L49.6414 79.0175ZM48.9592 80.0915C48.9777 79.4384 49.4801 79.1561 49.6181 79.0923C49.7831 79.016 49.9257 78.9993 49.968 78.9945C50.0757 78.9825 50.1604 78.9892 50.1815 78.9909C50.2445 78.9958 50.2922 79.005 50.3093 79.0083L49.8671 81.2376C49.8887 81.2419 49.94 81.2517 50.0052 81.2567C50.0275 81.2585 50.1131 81.2653 50.2214 81.2531C50.264 81.2483 50.4069 81.2315 50.572 81.1552C50.7101 81.0913 51.2126 80.8089 51.231 80.1558L48.9592 80.0915ZM50.3846 79.0264C50.391 79.0282 50.3968 79.0299 50.4021 79.0316L49.7329 81.2035C49.7431 81.2067 49.7535 81.2097 49.7641 81.2128L50.3846 79.0264ZM49.9191 81.2442C49.9127 81.2433 49.9059 81.2424 49.8985 81.2412L50.2506 78.9959C50.2389 78.9941 50.2273 78.9924 50.216 78.9909L49.9191 81.2442ZM49.8181 81.225C49.8002 81.2206 49.7563 81.2095 49.7013 81.1892C49.6802 81.1815 49.6139 81.1568 49.5351 81.1123C49.5006 81.0927 49.4109 81.0403 49.3149 80.9497C49.2657 80.9033 49.1854 80.8194 49.1133 80.6956C49.0405 80.5707 48.9503 80.3595 48.9594 80.0858L51.2309 80.1615C51.2482 79.6431 50.9217 79.3411 50.8752 79.2972C50.779 79.2064 50.6891 79.1539 50.6544 79.1342C50.575 79.0893 50.5079 79.0643 50.4857 79.0562C50.4285 79.0351 50.3812 79.023 50.3589 79.0175L49.8181 81.225ZM50.4023 20.9685C50.397 20.9701 50.3911 20.9719 50.3846 20.9737L49.764 18.7873C49.7534 18.7904 49.7429 18.7935 49.7327 18.7966L50.4023 20.9685ZM50.3092 20.9917C50.2921 20.9951 50.2443 21.0044 50.1812 21.0092C50.16 21.0109 50.0751 21.0177 49.9669 21.0054C49.9246 21.0006 49.7812 20.9837 49.6156 20.9066C49.4756 20.8415 48.9745 20.5566 48.9591 19.9032L51.2312 19.8497C51.2158 19.1962 50.7146 18.9113 50.5744 18.846C50.4087 18.7689 50.2651 18.7519 50.2225 18.7471C50.1138 18.7348 50.0279 18.7416 50.0056 18.7433C49.9402 18.7484 49.8888 18.7581 49.8671 18.7624L50.3092 20.9917ZM48.9591 19.9032C48.9528 19.6339 49.042 19.4263 49.1143 19.3028C49.1859 19.1804 49.2654 19.0972 49.3145 19.0508C49.4102 18.9603 49.4997 18.9079 49.5345 18.8882C49.6135 18.8434 49.6801 18.8187 49.7013 18.8109C49.7565 18.7906 49.8006 18.7794 49.8184 18.775L50.3587 20.9826C50.3809 20.9772 50.4283 20.965 50.4857 20.9439C50.508 20.9357 50.5754 20.9106 50.655 20.8655C50.69 20.8457 50.7797 20.7931 50.8756 20.7025C50.9238 20.6569 51.2432 20.3599 51.2312 19.8497L48.9591 19.9032ZM49.8986 18.7589C49.9058 18.7577 49.9126 18.7568 49.9189 18.7559L50.2161 21.0091C50.2274 21.0077 50.2389 21.006 50.2506 21.0042L49.8986 18.7589Z" fill="#050505" mask="url(#path-1-inside-1)"/>
</svg>
