<svg width="126" height="126" viewBox="0 0 126 126" fill="none" xmlns="http://www.w3.org/2000/svg">
<mask id="path-1-inside-1" fill="white">
<path fill-rule="evenodd" clip-rule="evenodd" d="M62.8326 9.98251C62.8327 9.98109 62.8489 9.98324 62.8812 9.9932C62.8487 9.98891 62.8326 9.98393 62.8326 9.98251ZM61.0886 11.6433C62.0747 10.5484 62.7165 10.1647 63 10.0389C63.2835 10.1647 63.9253 10.5484 64.9114 11.6433C66.6678 13.5934 68.7079 16.9779 70.6257 22.0122C72.7428 27.5698 74.4757 34.5141 75.5974 42.4199C71.527 42.1445 67.3141 42 63 42C58.6859 42 54.473 42.1445 50.4026 42.4199C51.5243 34.5141 53.2571 27.5698 55.3743 22.0122C57.2921 16.9779 59.3321 13.5934 61.0886 11.6433ZM40.1817 43.4198C43.3189 18.2119 52.3492 4.76837e-07 63 0C73.6508 -4.76837e-07 82.6811 18.2119 85.8183 43.4198C109.333 46.4668 126 54.0846 126 63C126 71.9154 109.333 79.5332 85.8183 82.5802C82.6811 107.788 73.6508 126 63 126C52.3492 126 43.3189 107.788 40.1817 82.5802C16.6671 79.5332 0 71.9154 0 63C0 54.0846 16.6671 46.4668 40.1817 43.4198ZM39.2631 72.3602C32.5112 71.3779 26.5326 70.0017 21.6145 68.3624C16.4965 66.6564 13.0761 64.8454 11.1406 63.32C10.9962 63.2062 10.8664 63.0995 10.7501 63C10.8664 62.9005 10.9962 62.7938 11.1406 62.68C13.0761 61.1546 16.4965 59.3436 21.6145 57.6376C26.5326 55.9982 32.5112 54.622 39.2631 53.6398C39.0898 56.6938 39 59.8194 39 63C39 66.1806 39.0898 69.3062 39.2631 72.3602ZM49.3519 73.4772C49.1219 70.0975 49 66.5965 49 63C49 59.4035 49.1219 55.9025 49.3519 52.5227C53.7017 52.183 58.2703 52 63 52C67.7297 52 72.2983 52.183 76.6481 52.5227C76.8781 55.9025 77 59.4035 77 63C77 66.5965 76.8781 70.0975 76.6481 73.4772C72.2983 73.8169 67.7297 74 63 74C58.2703 74 53.7017 73.8169 49.3519 73.4772ZM50.4026 83.5801C51.5243 91.4858 53.2571 98.4302 55.3743 103.988C57.2921 109.022 59.3321 112.407 61.0886 114.357C62.0747 115.452 62.7165 115.835 63 115.961C63.2835 115.835 63.9253 115.452 64.9114 114.357C66.6678 112.407 68.7079 109.022 70.6257 103.988C72.7428 98.4302 74.4757 91.4858 75.5974 83.5801C71.527 83.8554 67.3141 84 63 84C58.6859 84 54.473 83.8554 50.4026 83.5801ZM86.7369 72.3602C93.4888 71.3779 99.4674 70.0017 104.385 68.3624C109.503 66.6564 112.924 64.8454 114.859 63.32C115.004 63.2062 115.134 63.0995 115.25 63C115.134 62.9005 115.004 62.7938 114.859 62.68C112.924 61.1546 109.503 59.3436 104.385 57.6376C99.4674 55.9982 93.4888 54.622 86.7369 53.6398C86.9102 56.6938 87 59.8194 87 63C87 66.1806 86.9102 69.3062 86.7369 72.3602ZM62.8326 116.017C62.8326 116.016 62.8488 116.011 62.8813 116.007C62.8489 116.017 62.8327 116.019 62.8326 116.017ZM63.1543 116.016C63.163 116.018 63.1673 116.018 63.1674 116.017C63.1674 116.016 63.1512 116.011 63.1187 116.007C63.1343 116.012 63.1462 116.015 63.1543 116.016ZM63.1187 9.99319C63.1511 9.98322 63.1673 9.98108 63.1674 9.98251C63.1674 9.98393 63.1512 9.98891 63.1187 9.99319Z"/>
</mask>
<path d="M62.8326 9.98251L63.8322 10.0121L63.8322 10.0119L62.8326 9.98251ZM62.8812 9.9932L62.7504 10.9846L63.1758 9.03757L62.8812 9.9932ZM63 10.0389L63.4056 9.12486H62.5944L63 10.0389ZM61.0886 11.6433L60.3455 10.974V10.974L61.0886 11.6433ZM64.9114 11.6433L65.6545 10.974L65.6545 10.974L64.9114 11.6433ZM70.6257 22.0122L69.6912 22.3682V22.3682L70.6257 22.0122ZM75.5974 42.4199L75.5299 43.4176L76.5875 42.2794L75.5974 42.4199ZM50.4026 42.4199L49.4125 42.2794L50.4701 43.4176L50.4026 42.4199ZM55.3743 22.0122L56.3088 22.3682V22.3682L55.3743 22.0122ZM63 0V-1V0ZM40.1817 43.4198L40.3102 44.4115L41.1741 43.5433L40.1817 43.4198ZM85.8183 43.4198L84.8259 43.5433L85.6898 44.4115L85.8183 43.4198ZM85.8183 82.5802L85.6898 81.5885L84.8259 82.4567L85.8183 82.5802ZM40.1817 82.5802L41.1741 82.4567L40.3102 81.5885L40.1817 82.5802ZM21.6145 68.3624L21.2983 69.3111H21.2983L21.6145 68.3624ZM39.2631 72.3602L39.1191 73.3498L40.2615 72.3035L39.2631 72.3602ZM11.1406 63.32L11.7596 62.5346L11.7596 62.5346L11.1406 63.32ZM10.7501 63L10.1002 62.2399V63.76L10.7501 63ZM11.1406 62.68L11.7596 63.4654L11.7596 63.4654L11.1406 62.68ZM21.6145 57.6376L21.2983 56.6889H21.2983L21.6145 57.6376ZM39.2631 53.6398L40.2615 53.6964L39.1191 52.6502L39.2631 53.6398ZM49.3519 73.4772L48.3542 73.5452L49.2741 74.4742L49.3519 73.4772ZM49.3519 52.5227L49.2741 51.5258L48.3542 52.4548L49.3519 52.5227ZM76.6481 52.5227L77.6458 52.4548L76.7259 51.5258L76.6481 52.5227ZM76.6481 73.4772L76.7259 74.4742L77.6458 73.5452L76.6481 73.4772ZM50.4026 83.5801L50.4701 82.5824L49.4125 83.7206L50.4026 83.5801ZM55.3743 103.988L56.3088 103.632L55.3743 103.988ZM61.0886 114.357L61.8316 113.687L61.0886 114.357ZM63 115.961L62.5943 116.875H63.4057L63 115.961ZM64.9114 114.357L64.1684 113.687L64.9114 114.357ZM70.6257 103.988L71.5602 104.344L70.6257 103.988ZM75.5974 83.5801L76.5875 83.7206L75.5299 82.5824L75.5974 83.5801ZM86.7369 72.3602L85.7385 72.3035L86.8809 73.3498L86.7369 72.3602ZM104.385 68.3624L104.702 69.3111L104.385 68.3624ZM114.859 63.32L115.478 64.1054H115.478L114.859 63.32ZM115.25 63L115.9 63.76V62.2399L115.25 63ZM114.859 62.68L115.478 61.8946L115.478 61.8945L114.859 62.68ZM104.385 57.6376L104.702 56.6889L104.385 57.6376ZM86.7369 53.6398L86.8809 52.6502L85.7385 53.6964L86.7369 53.6398ZM62.8326 116.017L61.8331 116.047L61.8331 116.047L62.8326 116.017ZM62.8813 116.007L63.1761 116.962L62.7505 115.015L62.8813 116.007ZM63.1674 116.017L64.1669 116.049L64.1669 116.047L63.1674 116.017ZM63.1543 116.016L62.955 116.996L62.9555 116.996L63.1543 116.016ZM63.1187 116.007L63.2495 115.015L62.8238 116.962L63.1187 116.007ZM63.1187 9.99319L62.8241 9.03758L63.2495 10.9846L63.1187 9.99319ZM63.8322 10.0119C63.8153 10.5847 63.3755 10.8329 63.2534 10.8895C63.1082 10.9569 62.9826 10.9717 62.9454 10.9759C62.8506 10.9865 62.7763 10.9806 62.7582 10.9792C62.7037 10.9749 62.6632 10.967 62.6502 10.9645L63.0396 9.00273C63.0185 8.99855 62.9718 8.98974 62.9132 8.98519C62.893 8.98362 62.8172 8.97765 62.7214 8.98845C62.6837 8.9927 62.5577 9.00759 62.4123 9.07503C62.2899 9.13176 61.8499 9.38018 61.8331 9.95311L63.8322 10.0119ZM62.5961 10.9516C62.5923 10.9506 62.5892 10.9496 62.5867 10.9488L63.1758 9.03757C63.1647 9.03415 63.1535 9.03084 63.1423 9.02765L62.5961 10.9516ZM63.0121 9.0018C63.0154 9.00223 63.0193 9.00279 63.0238 9.0035L62.7139 10.9793C62.726 10.9812 62.7382 10.983 62.7504 10.9846L63.0121 9.0018ZM63.0821 9.01538C63.0959 9.01874 63.1332 9.02812 63.1807 9.04561C63.1989 9.05229 63.257 9.07388 63.3263 9.11314C63.3567 9.13036 63.4356 9.17649 63.5199 9.2563C63.5632 9.29721 63.6336 9.37083 63.6967 9.4793C63.7606 9.58886 63.8392 9.77322 63.8322 10.0121L61.8331 9.95296C61.8197 10.4057 62.1036 10.6696 62.1456 10.7093C62.2303 10.7894 62.3095 10.8357 62.3404 10.8532C62.4106 10.893 62.4702 10.9153 62.4903 10.9227C62.5417 10.9416 62.5849 10.9527 62.6064 10.958L63.0821 9.01538ZM62.5944 9.12486C62.4045 9.20909 62.1653 9.34249 61.8775 9.55045L63.0486 11.1717C63.2408 11.0329 63.3602 10.9731 63.4056 10.9529L62.5944 9.12486ZM60.8094 10.4824C60.6621 10.6308 60.5075 10.7942 60.3455 10.974L61.8316 12.3125C61.9731 12.1554 62.1056 12.0155 62.2291 11.891L60.8094 10.4824ZM60.3455 10.974C59.7331 11.654 59.1 12.4838 58.4588 13.466L60.1335 14.5593C60.7287 13.6477 61.2999 12.9028 61.8316 12.3125L60.3455 10.974ZM55.5902 18.8548C55.2033 19.7278 54.8189 20.6612 54.4398 21.6562L56.3088 22.3682C56.6759 21.4046 57.0469 20.5042 57.4187 19.6651L55.5902 18.8548ZM54.4398 21.6562C54.1313 22.4662 53.8311 23.3042 53.5399 24.169L55.4354 24.8072C55.7186 23.966 56.01 23.1526 56.3088 22.3682L54.4398 21.6562ZM52.0107 29.2705C51.5708 30.923 51.1607 32.6487 50.7837 34.441L52.7408 34.8527C53.111 33.0931 53.513 31.4018 53.9434 29.785L52.0107 29.2705ZM49.8123 39.6574C49.6716 40.5192 49.5382 41.3934 49.4125 42.2794L51.3927 42.5604C51.5165 41.688 51.6477 40.8275 51.7861 39.9796L49.8123 39.6574ZM50.4701 43.4176C51.5039 43.3477 52.5471 43.2862 53.5989 43.2335L53.4987 41.236C52.4354 41.2893 51.3806 41.3514 50.3351 41.4222L50.4701 43.4176ZM59.8648 43.0257C60.9034 43.0086 61.9487 43 63 43V41C61.9377 41 60.8815 41.0087 59.832 41.0259L59.8648 43.0257ZM63 43C64.0513 43 65.0966 43.0086 66.1352 43.0257L66.168 41.0259C65.1185 41.0087 64.0623 41 63 41V43ZM72.4011 43.2335C73.4529 43.2862 74.4961 43.3477 75.5299 43.4176L75.6649 41.4222C74.6194 41.3514 73.5646 41.2893 72.5013 41.236L72.4011 43.2335ZM76.5875 42.2794C76.4618 41.3934 76.3284 40.5192 76.1877 39.6574L74.2138 39.9796C74.3523 40.8275 74.4835 41.688 74.6073 42.5604L76.5875 42.2794ZM75.2163 34.441C74.8393 32.6487 74.4292 30.923 73.9893 29.2705L72.0566 29.785C72.487 31.4018 72.889 33.0931 73.2592 34.8527L75.2163 34.441ZM72.4601 24.169C72.1689 23.3042 71.8687 22.4662 71.5602 21.6562L69.6912 22.3682C69.99 23.1526 70.2814 23.966 70.5646 24.8072L72.4601 24.169ZM71.5602 21.6562C71.1811 20.6612 70.7967 19.7278 70.4098 18.8548L68.5813 19.6651C68.9531 20.5042 69.3241 21.4046 69.6912 22.3682L71.5602 21.6562ZM67.5412 13.466C66.9 12.4838 66.2669 11.654 65.6545 10.974L64.1684 12.3125C64.7001 12.9028 65.2713 13.6477 65.8665 14.5593L67.5412 13.466ZM65.6545 10.974C65.4925 10.7942 65.3379 10.6308 65.1906 10.4824L63.7709 11.891C63.8943 12.0155 64.0269 12.1554 64.1684 12.3125L65.6545 10.974ZM64.1225 9.55045C63.8346 9.34249 63.5954 9.20909 63.4056 9.12486L62.5944 10.9529C62.6398 10.9731 62.7592 11.0329 62.9514 11.1717L64.1225 9.55045ZM63 -1C62.0356 -1 61.0856 -0.865129 60.1547 -0.604408L60.6941 1.32148C61.4555 1.10823 62.2241 1 63 1V-1ZM55.2386 2.05129C53.9271 3.12085 52.6773 4.44854 51.4947 5.99914L53.0849 7.212C54.1914 5.76124 55.3348 4.55359 56.5026 3.60123L55.2386 2.05129ZM48.5802 10.5005C47.7615 11.9725 46.9812 13.5667 46.2425 15.2714L48.0776 16.0666C48.7931 14.4154 49.5448 12.8809 50.3281 11.4726L48.5802 10.5005ZM44.3267 20.2068C43.7679 21.8133 43.2407 23.4931 42.7473 25.2398L44.672 25.7835C45.1553 24.0725 45.6708 22.4305 46.2157 20.8638L44.3267 20.2068ZM41.4455 30.3449C41.0627 32.015 40.7085 33.7342 40.3846 35.4979L42.3517 35.8591C42.6705 34.123 43.0189 32.4324 43.3949 30.7917L41.4455 30.3449ZM39.538 40.69C39.4148 41.5501 39.2986 42.4191 39.1894 43.2963L41.1741 43.5433C41.2817 42.6781 41.3964 41.8214 41.5178 40.9735L39.538 40.69ZM40.0532 42.4281C39.259 42.531 38.4725 42.6391 37.6939 42.7523L37.9817 44.7315C38.7498 44.6198 39.5262 44.5131 40.3102 44.4115L40.0532 42.4281ZM32.9901 43.5149C31.3896 43.8023 29.8296 44.112 28.3138 44.4429L28.7404 46.3969C30.2309 46.0715 31.7665 45.7666 33.3435 45.4834L32.9901 43.5149ZM23.6785 45.557C22.0847 45.9775 20.551 46.4233 19.083 46.8929L19.6922 48.7978C21.1254 48.3394 22.6259 47.9032 24.1886 47.4909L23.6785 45.557ZM14.5643 48.4946C12.9937 49.112 11.522 49.7613 10.1589 50.4402L11.0506 52.2305C12.3555 51.5805 13.7733 50.9545 15.296 50.356L14.5643 48.4946ZM5.95625 52.8599C4.47343 53.8576 3.1942 54.9118 2.15141 56.0194L3.60763 57.3904C4.52764 56.4131 5.68578 55.4524 7.0727 54.5193L5.95625 52.8599ZM-0.568366 60.3631C-0.852029 61.2222 -1 62.1031 -1 63H1C1 62.3264 1.11064 61.6569 1.33078 60.9901L-0.568366 60.3631ZM-1 63C-1 63.8969 -0.852029 64.7778 -0.568365 65.6369L1.33079 65.0098C1.11064 64.3431 1 63.6736 1 63H-1ZM2.15142 69.9805C3.1942 71.0882 4.47343 72.1424 5.95625 73.1401L7.0727 71.4807C5.68578 70.5475 4.52764 69.5868 3.60763 68.6096L2.15142 69.9805ZM10.1589 75.5597C11.522 76.2387 12.9937 76.888 14.5643 77.5054L15.296 75.644C13.7733 75.0455 12.3555 74.4195 11.0506 73.7695L10.1589 75.5597ZM19.083 79.1071C20.551 79.5766 22.0847 80.0225 23.6785 80.4429L24.1887 78.5091C22.6259 78.0968 21.1254 77.6605 19.6922 77.2022L19.083 79.1071ZM28.3138 81.557C29.8296 81.888 31.3896 82.1977 32.9901 82.4851L33.3435 80.5165C31.7665 80.2334 30.2309 79.9285 28.7404 79.6031L28.3138 81.557ZM37.6939 83.2477C38.4725 83.3609 39.259 83.469 40.0532 83.5719L40.3102 81.5885C39.5262 81.4869 38.7498 81.3802 37.9817 81.2685L37.6939 83.2477ZM39.1894 82.7037C39.2986 83.5809 39.4148 84.4498 39.538 85.31L41.5178 85.0264C41.3964 84.1786 41.2817 83.3218 41.1741 82.4567L39.1894 82.7037ZM40.3846 90.5021C40.7085 92.2658 41.0627 93.985 41.4455 95.6551L43.3949 95.2083C43.0189 93.5676 42.6705 91.8769 42.3517 90.1408L40.3846 90.5021ZM42.7473 100.76C43.2407 102.507 43.7679 104.187 44.3267 105.793L46.2157 105.136C45.6707 103.569 45.1553 101.927 44.672 100.216L42.7473 100.76ZM46.2425 110.729C46.9812 112.433 47.7615 114.027 48.5802 115.499L50.3281 114.527C49.5448 113.119 48.7931 111.585 48.0776 109.933L46.2425 110.729ZM51.4947 120.001C52.6773 121.551 53.9271 122.879 55.2386 123.949L56.5026 122.399C55.3348 121.446 54.1914 120.239 53.0849 118.788L51.4947 120.001ZM60.1547 126.604C61.0856 126.865 62.0356 127 63 127V125C62.2241 125 61.4555 124.892 60.6941 124.679L60.1547 126.604ZM63 127C63.9644 127 64.9144 126.865 65.8453 126.604L65.3059 124.679C64.5445 124.892 63.7759 125 63 125V127ZM70.7614 123.949C72.0729 122.879 73.3227 121.551 74.5053 120.001L72.9151 118.788C71.8086 120.239 70.6652 121.446 69.4974 122.399L70.7614 123.949ZM77.4198 115.499C78.2385 114.027 79.0188 112.433 79.7575 110.729L77.9224 109.933C77.2069 111.585 76.4552 113.119 75.6719 114.527L77.4198 115.499ZM81.6733 105.793C82.2321 104.187 82.7593 102.507 83.2527 100.76L81.328 100.216C80.8447 101.927 80.3292 103.569 79.7843 105.136L81.6733 105.793ZM84.5545 95.6551C84.9373 93.985 85.2915 92.2658 85.6154 90.5021L83.6483 90.1408C83.3295 91.8769 82.9811 93.5676 82.6051 95.2083L84.5545 95.6551ZM86.462 85.31C86.5852 84.4498 86.7014 83.5809 86.8106 82.7037L84.8259 82.4567C84.7182 83.3218 84.6036 84.1786 84.4822 85.0264L86.462 85.31ZM85.9468 83.5719C86.741 83.469 87.5275 83.3609 88.3061 83.2477L88.0183 81.2685C87.2502 81.3802 86.4738 81.4869 85.6898 81.5885L85.9468 83.5719ZM93.0099 82.4851C94.6104 82.1977 96.1704 81.888 97.6862 81.557L97.2596 79.6031C95.7691 79.9285 94.2335 80.2334 92.6565 80.5165L93.0099 82.4851ZM102.322 80.4429C103.915 80.0225 105.449 79.5766 106.917 79.1071L106.308 77.2022C104.875 77.6605 103.374 78.0968 101.811 78.5091L102.322 80.4429ZM111.436 77.5054C113.006 76.888 114.478 76.2387 115.841 75.5597L114.949 73.7695C113.644 74.4195 112.227 75.0455 110.704 75.644L111.436 77.5054ZM120.044 73.1401C121.527 72.1424 122.806 71.0882 123.849 69.9805L122.392 68.6096C121.472 69.5868 120.314 70.5475 118.927 71.4807L120.044 73.1401ZM126.568 65.6369C126.852 64.7778 127 63.8969 127 63H125C125 63.6736 124.889 64.3431 124.669 65.0098L126.568 65.6369ZM127 63C127 62.1031 126.852 61.2222 126.568 60.3631L124.669 60.9901C124.889 61.6569 125 62.3264 125 63H127ZM123.849 56.0194C122.806 54.9118 121.527 53.8576 120.044 52.8599L118.927 54.5193C120.314 55.4524 121.472 56.4131 122.392 57.3904L123.849 56.0194ZM115.841 50.4402C114.478 49.7613 113.006 49.1119 111.436 48.4946L110.704 50.356C112.227 50.9545 113.644 51.5805 114.949 52.2305L115.841 50.4402ZM106.917 46.8929C105.449 46.4233 103.915 45.9775 102.322 45.557L101.811 47.4909C103.374 47.9032 104.875 48.3394 106.308 48.7978L106.917 46.8929ZM97.6862 44.4429C96.1704 44.112 94.6104 43.8023 93.0099 43.5149L92.6565 45.4834C94.2335 45.7666 95.7691 46.0715 97.2596 46.3969L97.6862 44.4429ZM88.3061 42.7523C87.5275 42.6391 86.741 42.531 85.9468 42.4281L85.6898 44.4115C86.4738 44.5131 87.2501 44.6198 88.0183 44.7315L88.3061 42.7523ZM86.8106 43.2963C86.7014 42.4191 86.5852 41.5501 86.462 40.69L84.4822 40.9736C84.6036 41.8214 84.7182 42.6781 84.8259 43.5433L86.8106 43.2963ZM85.6154 35.4979C85.2915 33.7342 84.9373 32.015 84.5545 30.3449L82.6051 30.7917C82.9811 32.4324 83.3294 34.123 83.6482 35.8591L85.6154 35.4979ZM83.2527 25.2398C82.7593 23.4931 82.2321 21.8133 81.6733 20.2068L79.7843 20.8638C80.3292 22.4305 80.8447 24.0725 81.328 25.7835L83.2527 25.2398ZM79.7575 15.2714C79.0188 13.5667 78.2385 11.9725 77.4198 10.5005L75.6719 11.4726C76.4552 12.8809 77.2069 14.4154 77.9223 16.0666L79.7575 15.2714ZM74.5053 5.99915C73.3227 4.44854 72.0729 3.12085 70.7614 2.05129L69.4974 3.60123C70.6652 4.5536 71.8086 5.76124 72.9151 7.21201L74.5053 5.99915ZM65.8453 -0.604405C64.9144 -0.865128 63.9644 -1 63 -1V1C63.7758 1 64.5445 1.10823 65.3059 1.32149L65.8453 -0.604405ZM21.9308 67.4137C20.9678 67.0927 20.0674 66.7685 19.2279 66.4438L18.5064 68.3091C19.3768 68.6457 20.3069 68.9806 21.2983 69.3111L21.9308 67.4137ZM14.0683 64.054C13.1215 63.5169 12.3564 63.005 11.7596 62.5346L10.5216 64.1054C11.2133 64.6505 12.0658 65.2174 13.0815 65.7936L14.0683 64.054ZM11.7596 62.5346C11.7282 62.5099 11.6976 62.4855 11.6678 62.4616L10.4158 64.0212C10.4503 64.0489 10.4856 64.077 10.5216 64.1054L11.7596 62.5346ZM11.4879 62.3143C11.4576 62.2889 11.4283 62.2642 11.3999 62.2399L10.1002 63.76C10.1342 63.7891 10.1691 63.8187 10.205 63.8487L11.4879 62.3143ZM11.3999 63.76C11.4283 63.7358 11.4576 63.711 11.4879 63.6857L10.205 62.1513C10.1691 62.1813 10.1342 62.2109 10.1002 62.2399L11.3999 63.76ZM11.6678 63.5383C11.6976 63.5144 11.7282 63.4901 11.7596 63.4654L10.5216 61.8945C10.4856 61.923 10.4503 61.951 10.4158 61.9787L11.6678 63.5383ZM11.7596 63.4654C12.3564 62.995 13.1215 62.4831 14.0683 61.9459L13.0815 60.2064C12.0658 60.7825 11.2133 61.3494 10.5216 61.8945L11.7596 63.4654ZM19.2279 59.5562C20.0674 59.2315 20.9678 58.9073 21.9308 58.5863L21.2983 56.6889C20.3069 57.0194 19.3768 57.3542 18.5064 57.6909L19.2279 59.5562ZM21.9308 58.5863C22.6192 58.3568 23.3293 58.1323 24.0604 57.9133L23.4864 55.9974C22.7366 56.2221 22.0069 56.4527 21.2983 56.6889L21.9308 58.5863ZM28.3831 56.7424C29.7865 56.3992 31.2482 56.0748 32.7639 55.7713L32.3712 53.8102C30.8293 54.1189 29.3401 54.4494 27.9079 54.7997L28.3831 56.7424ZM37.1846 54.9715C37.9154 54.8527 38.6563 54.7386 39.407 54.6294L39.1191 52.6502C38.3575 52.761 37.6056 52.8768 36.8637 52.9974L37.1846 54.9715ZM38.2647 53.5831C38.2204 54.3629 38.1816 55.1473 38.1483 55.936L40.1465 56.0204C40.1794 55.2413 40.2178 54.4666 40.2615 53.6964L38.2647 53.5831ZM38.0164 60.6449C38.0055 61.4264 38 62.2115 38 63H40C40 62.2208 40.0054 61.445 40.0162 60.6727L38.0164 60.6449ZM38 63C38 63.7885 38.0055 64.5736 38.0164 65.3551L40.0162 65.3273C40.0054 64.555 40 63.7792 40 63H38ZM38.1483 70.064C38.1816 70.8527 38.2204 71.6371 38.2647 72.4168L40.2615 72.3035C40.2178 71.5334 40.1794 70.7587 40.1465 69.9796L38.1483 70.064ZM39.407 71.3706C38.6563 71.2614 37.9154 71.1473 37.1846 71.0285L36.8637 73.0026C37.6056 73.1232 38.3575 73.239 39.1191 73.3498L39.407 71.3706ZM32.7639 70.2287C31.2482 69.9252 29.7865 69.6008 28.3831 69.2576L27.9079 71.2003C29.3401 71.5506 30.8293 71.881 32.3712 72.1897L32.7639 70.2287ZM24.0604 68.0867C23.3293 67.8676 22.6192 67.6432 21.9308 67.4137L21.2983 69.3111C22.0069 69.5473 22.7366 69.7779 23.4864 70.0025L24.0604 68.0867ZM48 63C48 63.8851 48.0073 64.7645 48.0218 65.6378L50.0215 65.6046C50.0072 64.7424 50 63.8741 50 63H48ZM48.1981 70.9111C48.2429 71.7967 48.295 72.6749 48.3542 73.5452L50.3496 73.4093C50.2912 72.5507 50.2398 71.6842 50.1956 70.8102L48.1981 70.9111ZM49.2741 74.4742C50.4024 74.5623 51.5453 74.64 52.7017 74.7067L52.8169 72.71C51.6739 72.6441 50.5446 72.5673 49.4298 72.4803L49.2741 74.4742ZM59.5659 74.9678C60.7006 74.9891 61.8456 75 63 75V73C61.8581 73 60.7256 72.9893 59.6035 72.9682L59.5659 74.9678ZM63 75C64.1544 75 65.2994 74.9891 66.4341 74.9678L66.3965 72.9682C65.2744 72.9893 64.1419 73 63 73V75ZM73.2983 74.7067C74.4547 74.64 75.5975 74.5623 76.7259 74.4742L76.5702 72.4803C75.4554 72.5673 74.3261 72.6441 73.1831 72.71L73.2983 74.7067ZM77.6458 73.5452C77.705 72.6749 77.7571 71.7967 77.8019 70.9111L75.8044 70.8102C75.7602 71.6842 75.7088 72.5507 75.6504 73.4093L77.6458 73.5452ZM77.9782 65.6378C77.9927 64.7645 78 63.8851 78 63H76C76 63.8741 75.9928 64.7424 75.9785 65.6046L77.9782 65.6378ZM78 63C78 62.1149 77.9927 61.2355 77.9782 60.3622L75.9785 60.3953C75.9928 61.2576 76 62.1259 76 63H78ZM77.8019 55.0889C77.7571 54.2032 77.705 53.3251 77.6458 52.4548L75.6504 52.5906C75.7088 53.4492 75.7602 54.3158 75.8044 55.1898L77.8019 55.0889ZM76.7259 51.5258C75.5975 51.4376 74.4547 51.36 73.2983 51.2933L73.1831 53.29C74.3261 53.3559 75.4554 53.4326 76.5702 53.5197L76.7259 51.5258ZM66.4341 51.0321C65.2994 51.0108 64.1544 51 63 51V53C64.1419 53 65.2744 53.0107 66.3965 53.0318L66.4341 51.0321ZM63 51C61.8456 51 60.7006 51.0108 59.5659 51.0321L59.6035 53.0318C60.7256 53.0107 61.8581 53 63 53V51ZM52.7017 51.2933C51.5453 51.36 50.4024 51.4376 49.2741 51.5258L49.4298 53.5197C50.5446 53.4326 51.6739 53.3559 52.8169 53.29L52.7017 51.2933ZM48.3542 52.4548C48.295 53.3251 48.2429 54.2032 48.1981 55.0889L50.1956 55.1898C50.2398 54.3158 50.2912 53.4492 50.3496 52.5906L48.3542 52.4548ZM48.0218 60.3622C48.0073 61.2355 48 62.1149 48 63H50C50 62.1259 50.0072 61.2576 50.0215 60.3953L48.0218 60.3622ZM49.4125 83.7206C49.5382 84.6066 49.6716 85.4808 49.8123 86.3426L51.7861 86.0203C51.6477 85.1724 51.5165 84.312 51.3927 83.4396L49.4125 83.7206ZM50.7837 91.559C51.1607 93.3513 51.5708 95.077 52.0107 96.7295L53.9434 96.215C53.513 94.5982 53.111 92.9069 52.7408 91.1473L50.7837 91.559ZM53.5399 101.831C53.8311 102.696 54.1313 103.534 54.4398 104.344L56.3088 103.632C56.01 102.847 55.7186 102.034 55.4354 101.193L53.5399 101.831ZM54.4398 104.344C54.8189 105.339 55.2033 106.272 55.5902 107.145L57.4187 106.335C57.0469 105.496 56.6759 104.595 56.3088 103.632L54.4398 104.344ZM58.4588 112.534C59.1 113.516 59.7331 114.346 60.3455 115.026L61.8316 113.687C61.2999 113.097 60.7287 112.352 60.1335 111.441L58.4588 112.534ZM60.3455 115.026C60.5075 115.206 60.6621 115.369 60.8094 115.518L62.2291 114.109C62.1057 113.984 61.9731 113.845 61.8316 113.687L60.3455 115.026ZM61.8775 116.45C62.1653 116.658 62.4045 116.791 62.5943 116.875L63.4057 115.047C63.3602 115.027 63.2408 114.967 63.0486 114.828L61.8775 116.45ZM63.4057 116.875C63.5955 116.791 63.8347 116.658 64.1225 116.45L62.9514 114.828C62.7592 114.967 62.6398 115.027 62.5943 115.047L63.4057 116.875ZM65.1906 115.518C65.3379 115.369 65.4925 115.206 65.6545 115.026L64.1684 113.687C64.0269 113.845 63.8943 113.984 63.7709 114.109L65.1906 115.518ZM65.6545 115.026C66.2669 114.346 66.9 113.516 67.5412 112.534L65.8665 111.441C65.2713 112.352 64.7001 113.097 64.1684 113.687L65.6545 115.026ZM70.4098 107.145C70.7967 106.272 71.1811 105.339 71.5602 104.344L69.6912 103.632C69.3241 104.595 68.9531 105.496 68.5813 106.335L70.4098 107.145ZM71.5602 104.344C71.8687 103.534 72.1689 102.696 72.4601 101.831L70.5646 101.193C70.2814 102.034 69.99 102.847 69.6912 103.632L71.5602 104.344ZM73.9893 96.7295C74.4292 95.077 74.8393 93.3513 75.2163 91.559L73.2592 91.1473C72.889 92.9069 72.487 94.5982 72.0566 96.215L73.9893 96.7295ZM76.1877 86.3426C76.3284 85.4808 76.4618 84.6066 76.5875 83.7206L74.6073 83.4396C74.4835 84.312 74.3523 85.1724 74.2139 86.0203L76.1877 86.3426ZM75.5299 82.5824C74.4961 82.6523 73.4529 82.7138 72.4011 82.7665L72.5013 84.764C73.5646 84.7107 74.6194 84.6485 75.6649 84.5778L75.5299 82.5824ZM66.1352 82.9743C65.0966 82.9914 64.0513 83 63 83V85C64.0623 85 65.1185 84.9913 66.168 84.974L66.1352 82.9743ZM63 83C61.9487 83 60.9034 82.9914 59.8648 82.9743L59.832 84.974C60.8815 84.9913 61.9377 85 63 85V83ZM53.5989 82.7665C52.5471 82.7138 51.5039 82.6523 50.4701 82.5824L50.3351 84.5778C51.3806 84.6485 52.4353 84.7107 53.4987 84.764L53.5989 82.7665ZM87.7353 72.4168C87.7796 71.6371 87.8184 70.8527 87.8517 70.064L85.8535 69.9796C85.8206 70.7587 85.7822 71.5334 85.7385 72.3035L87.7353 72.4168ZM87.9836 65.3551C87.9945 64.5736 88 63.7885 88 63H86C86 63.7792 85.9946 64.555 85.9838 65.3273L87.9836 65.3551ZM88 63C88 62.2115 87.9945 61.4264 87.9836 60.6449L85.9838 60.6727C85.9946 61.4449 86 62.2208 86 63H88ZM87.8517 55.936C87.8184 55.1473 87.7796 54.3629 87.7353 53.5831L85.7385 53.6964C85.7822 54.4666 85.8206 55.2413 85.8535 56.0204L87.8517 55.936ZM86.593 54.6294C87.3437 54.7386 88.0846 54.8527 88.8154 54.9715L89.1363 52.9974C88.3944 52.8768 87.6424 52.761 86.8809 52.6502L86.593 54.6294ZM93.2361 55.7713C94.7518 56.0748 96.2135 56.3992 97.6169 56.7424L98.0921 54.7997C96.6599 54.4494 95.1706 54.1189 93.6288 53.8102L93.2361 55.7713ZM101.94 57.9133C102.671 58.1323 103.381 58.3568 104.069 58.5863L104.702 56.6889C103.993 56.4527 103.263 56.2221 102.514 55.9974L101.94 57.9133ZM104.069 58.5863C105.032 58.9073 105.933 59.2315 106.772 59.5562L107.494 57.6909C106.623 57.3542 105.693 57.0194 104.702 56.6889L104.069 58.5863ZM111.932 61.9459C112.878 62.4831 113.644 62.995 114.24 63.4654L115.478 61.8945C114.787 61.3494 113.934 60.7825 112.919 60.2064L111.932 61.9459ZM114.24 63.4654C114.272 63.4901 114.302 63.5144 114.332 63.5383L115.584 61.9787C115.55 61.951 115.514 61.923 115.478 61.8946L114.24 63.4654ZM114.512 63.6857C114.542 63.711 114.572 63.7358 114.6 63.76L115.9 62.2399C115.866 62.2108 115.831 62.1813 115.795 62.1513L114.512 63.6857ZM114.6 62.2399C114.572 62.2641 114.542 62.2889 114.512 62.3143L115.795 63.8487C115.831 63.8187 115.866 63.7891 115.9 63.76L114.6 62.2399ZM114.332 62.4616C114.302 62.4855 114.272 62.5099 114.24 62.5346L115.478 64.1054C115.514 64.077 115.55 64.0489 115.584 64.0212L114.332 62.4616ZM114.24 62.5346C113.644 63.005 112.878 63.5169 111.932 64.054L112.919 65.7936C113.934 65.2174 114.787 64.6505 115.478 64.1054L114.24 62.5346ZM106.772 66.4438C105.933 66.7685 105.032 67.0927 104.069 67.4137L104.702 69.3111C105.693 68.9806 106.623 68.6457 107.494 68.3091L106.772 66.4438ZM104.069 67.4137C103.381 67.6432 102.671 67.8676 101.94 68.0867L102.514 70.0025C103.263 69.7779 103.993 69.5473 104.702 69.3111L104.069 67.4137ZM97.6169 69.2576C96.2135 69.6008 94.7518 69.9252 93.2361 70.2287L93.6288 72.1898C95.1707 71.881 96.6599 71.5506 98.0921 71.2003L97.6169 69.2576ZM88.8154 71.0285C88.0846 71.1473 87.3437 71.2614 86.593 71.3706L86.8809 73.3498C87.6425 73.239 88.3944 73.1232 89.1363 73.0026L88.8154 71.0285ZM63.8322 115.988C63.8392 116.226 63.7613 116.409 63.6977 116.519C63.6347 116.628 63.5645 116.701 63.5212 116.743C63.4368 116.823 63.3577 116.869 63.3272 116.886C63.2577 116.926 63.1993 116.948 63.1811 116.954C63.1334 116.972 63.0959 116.981 63.0822 116.985L62.6063 115.042C62.5848 115.047 62.5415 115.058 62.4899 115.077C62.4698 115.085 62.41 115.107 62.3395 115.147C62.3085 115.165 62.2291 115.211 62.1444 115.292C62.1015 115.333 61.8198 115.596 61.8331 116.047L63.8322 115.988ZM63.0238 116.997C63.0193 116.997 63.0153 116.998 63.012 116.998L62.7505 115.015C62.7383 115.017 62.7261 115.019 62.7139 115.021L63.0238 116.997ZM62.5864 115.051C62.5889 115.05 62.5921 115.05 62.596 115.048L63.1425 116.972C63.1538 116.969 63.165 116.966 63.1761 116.962L62.5864 115.051ZM62.6504 115.035C62.6634 115.033 62.7039 115.025 62.7583 115.021C62.7764 115.019 62.8503 115.013 62.9447 115.024C62.9817 115.028 63.1067 115.043 63.2514 115.11C63.3713 115.165 63.8152 115.412 63.8322 115.988L61.8331 116.047C61.8501 116.623 62.294 116.87 62.4142 116.926C62.5592 116.993 62.6846 117.007 62.7221 117.012C62.8175 117.022 62.893 117.016 62.9131 117.015C62.9716 117.01 63.0182 117.002 63.0394 116.997L62.6504 115.035ZM64.1669 116.047C64.1802 115.596 63.8985 115.333 63.8556 115.292C63.7709 115.211 63.6915 115.165 63.6605 115.147C63.59 115.107 63.5302 115.085 63.5101 115.077C63.4584 115.058 63.4152 115.047 63.3936 115.042L62.9178 116.985C62.904 116.981 62.8666 116.972 62.8189 116.954C62.8007 116.948 62.7423 116.926 62.6728 116.886C62.6423 116.869 62.5632 116.823 62.4788 116.743C62.4355 116.701 62.3653 116.628 62.3023 116.519C62.2387 116.409 62.1608 116.226 62.1678 115.988L64.1669 116.047ZM63.2861 115.021C63.2739 115.019 63.2617 115.017 63.2495 115.015L62.988 116.998C62.9847 116.998 62.9807 116.997 62.9762 116.997L63.2861 115.021ZM62.8238 116.962C62.8318 116.965 62.8399 116.967 62.8479 116.97L63.4072 115.049C63.4096 115.05 63.4118 115.051 63.4136 115.051L62.8238 116.962ZM62.9087 116.986C62.9227 116.989 62.9383 116.993 62.955 116.996L63.3536 115.036C63.3651 115.039 63.3747 115.041 63.382 115.043L62.9087 116.986ZM62.9555 116.996C62.9632 116.998 62.9714 116.999 62.9802 117.001L63.3349 115.033C63.3417 115.034 63.3477 115.035 63.3531 115.036L62.9555 116.996ZM63.0838 117.015C63.1039 117.016 63.1781 117.022 63.2721 117.012C63.3088 117.008 63.4326 116.995 63.5764 116.93C63.6896 116.879 64.1486 116.635 64.1669 116.049L62.1679 115.986C62.1862 115.4 62.645 115.156 62.7579 115.105C62.9015 115.041 63.0249 115.027 63.061 115.023C63.1539 115.014 63.2266 115.02 63.2446 115.021L63.0838 117.015ZM63.4133 10.9488C63.4108 10.9496 63.4076 10.9505 63.4038 10.9516L62.8577 9.02764C62.8464 9.03083 62.8352 9.03415 62.8241 9.03758L63.4133 10.9488ZM63.3496 10.9645C63.3366 10.9671 63.296 10.975 63.2415 10.9792C63.2234 10.9806 63.1491 10.9865 63.0542 10.9758C63.017 10.9716 62.891 10.9567 62.7454 10.889C62.6224 10.8318 62.1815 10.5813 62.1677 10.0066L64.1671 9.95845C64.1532 9.3835 63.7122 9.13291 63.5889 9.07556C63.443 9.00771 63.3166 8.99274 63.279 8.98848C63.1831 8.97763 63.1072 8.9836 63.087 8.98516C63.0284 8.9897 62.9817 8.9985 62.9606 9.00269L63.3496 10.9645ZM62.1677 10.0066C62.1619 9.76951 62.2404 9.58676 62.304 9.478C62.367 9.37024 62.437 9.29701 62.4802 9.25618C62.5644 9.17655 62.6431 9.13048 62.6736 9.1132C62.7429 9.0739 62.8011 9.05229 62.8193 9.04559C62.8669 9.02807 62.9043 9.01869 62.918 9.01533L63.3934 10.958C63.4149 10.9527 63.4581 10.9416 63.5096 10.9227C63.5298 10.9153 63.5894 10.893 63.6597 10.8532C63.6907 10.8356 63.7698 10.7893 63.8542 10.7094C63.8967 10.6692 64.1779 10.4076 64.1671 9.95845L62.1677 10.0066ZM62.9762 9.00348C62.9807 9.00277 62.9846 9.00222 62.9879 9.00179L63.2495 10.9846C63.2617 10.983 63.2739 10.9812 63.286 10.9793L62.9762 9.00348ZM62.8326 9.98251L64.8317 10.0416L64.8318 10.0413L62.8326 9.98251ZM62.8812 9.9932L62.6196 11.976L63.4704 8.08194L62.8812 9.9932ZM63 10.0389L63.8113 8.21082H62.1887L63 10.0389ZM61.0886 11.6433L59.6025 10.3048L59.6025 10.3048L61.0886 11.6433ZM64.9114 11.6433L66.3975 10.3048V10.3048L64.9114 11.6433ZM70.6257 22.0122L68.7567 22.7242V22.7242L70.6257 22.0122ZM75.5974 42.4199L75.4624 44.4153L77.5776 42.1389L75.5974 42.4199ZM50.4026 42.4199L48.4224 42.1389L50.5376 44.4153L50.4026 42.4199ZM55.3743 22.0122L57.2433 22.7242V22.7242L55.3743 22.0122ZM63 0V-2V0ZM40.1817 43.4198L40.4387 45.4032L42.1664 43.6668L40.1817 43.4198ZM85.8183 43.4198L83.8336 43.6668L85.5612 45.4032L85.8183 43.4198ZM85.8183 82.5802L85.5612 80.5968L83.8336 82.3332L85.8183 82.5802ZM40.1817 82.5802L42.1664 82.3332L40.4387 80.5968L40.1817 82.5802ZM21.6145 68.3624L20.9821 70.2598H20.9821L21.6145 68.3624ZM39.2631 72.3602L38.9751 74.3393L41.2599 72.2469L39.2631 72.3602ZM11.1406 63.32L12.3785 61.7492L12.3785 61.7492L11.1406 63.32ZM10.7501 63L9.45034 61.4799V64.5201L10.7501 63ZM11.1406 62.68L12.3785 64.2508L12.3785 64.2508L11.1406 62.68ZM21.6145 57.6376L20.9821 55.7402H20.9821L21.6145 57.6376ZM39.2631 53.6398L41.2599 53.7531L38.9751 51.6606L39.2631 53.6398ZM49.3519 73.4772L47.3565 73.6131L49.1962 75.4712L49.3519 73.4772ZM49.3519 52.5227L49.1962 50.5288L47.3565 52.3869L49.3519 52.5227ZM76.6481 52.5227L78.6434 52.3869L76.8038 50.5288L76.6481 52.5227ZM76.6481 73.4772L76.8038 75.4712L78.6434 73.6131L76.6481 73.4772ZM50.4026 83.5801L50.5376 81.5846L48.4224 83.861L50.4026 83.5801ZM55.3743 103.988L57.2433 103.276L55.3743 103.988ZM61.0886 114.357L62.5747 113.018L61.0886 114.357ZM63 115.961L62.1887 117.789H63.8113L63 115.961ZM64.9114 114.357L63.4253 113.018L64.9114 114.357ZM70.6257 103.988L72.4947 104.7L70.6257 103.988ZM75.5974 83.5801L77.5776 83.861L75.4624 81.5846L75.5974 83.5801ZM86.7369 72.3602L84.7401 72.2469L87.0248 74.3393L86.7369 72.3602ZM104.385 68.3624L105.018 70.2598L104.385 68.3624ZM114.859 63.32L116.097 64.8908L116.097 64.8908L114.859 63.32ZM115.25 63L116.55 64.5201V61.4799L115.25 63ZM114.859 62.68L116.097 61.1091L116.097 61.1091L114.859 62.68ZM104.385 57.6376L105.018 55.7402L104.385 57.6376ZM86.7369 53.6398L87.0248 51.6606L84.7401 53.7531L86.7369 53.6398ZM62.8326 116.017L60.8335 116.076L60.8335 116.077L62.8326 116.017ZM62.8813 116.007L63.471 117.918L62.6197 114.024L62.8813 116.007ZM63.1674 116.017L65.1664 116.08L65.1665 116.076L63.1674 116.017ZM63.1543 116.016L62.7557 117.976L62.7568 117.976L63.1543 116.016ZM63.1187 116.007L63.3803 114.024L62.5289 117.918L63.1187 116.007ZM63.1187 9.99319L62.5295 8.08196L63.3803 11.976L63.1187 9.99319ZM64.8318 10.0413C64.7981 11.1869 63.9184 11.6835 63.674 11.7968C63.3834 11.9315 63.132 11.9612 63.0574 11.9696C62.8673 11.991 62.718 11.9791 62.6807 11.9762C62.5697 11.9675 62.4855 11.9513 62.4556 11.9453L63.2343 8.02187C63.1962 8.01431 63.1058 7.99715 62.9907 7.9882C62.9514 7.98514 62.8005 7.9732 62.6094 7.99474C62.5342 8.00321 62.2825 8.03295 61.9917 8.16777C61.747 8.28118 60.8672 8.77794 60.8335 9.92372L64.8318 10.0413ZM62.323 11.9136C62.3117 11.9104 62.3014 11.9073 62.2921 11.9045L63.4704 8.08194C63.4525 8.07642 63.4341 8.07098 63.4154 8.06567L62.323 11.9136ZM63.1429 8.01039C63.154 8.01185 63.1659 8.01357 63.1788 8.01558L62.5589 11.9673C62.5794 11.9705 62.5996 11.9734 62.6196 11.976L63.1429 8.01039ZM63.32 8.04408C63.3514 8.05176 63.4289 8.07139 63.5259 8.10708C63.5632 8.12079 63.6802 8.1643 63.8193 8.2431C63.8803 8.27766 64.0382 8.37006 64.2071 8.52978C64.2937 8.61166 64.4344 8.75895 64.5608 8.97595C64.6885 9.19511 64.8459 9.56389 64.8317 10.0416L60.8335 9.9234C60.8067 10.8287 61.3746 11.3565 61.4585 11.4358C61.6276 11.5958 61.7859 11.6884 61.8474 11.7233C61.9874 11.8026 62.1059 11.8468 62.1451 11.8612C62.246 11.8983 62.3294 11.9197 62.3685 11.9293L63.32 8.04408ZM62.1887 8.21082C61.9267 8.32709 61.6276 8.49729 61.2919 8.73983L63.6342 11.9823C63.7785 11.8781 63.838 11.8551 63.8113 11.867L62.1887 8.21082ZM60.0995 9.77804C59.9404 9.93845 59.7747 10.1136 59.6025 10.3048L62.5747 12.9817C62.7059 12.836 62.8274 12.7079 62.939 12.5954L60.0995 9.77804ZM59.6025 10.3048C58.9496 11.0296 58.2857 11.9019 57.6214 12.9193L60.9708 15.106C61.543 14.2296 62.0834 13.5272 62.5747 12.9817L59.6025 10.3048ZM54.6759 18.4497C54.2815 19.3397 53.8904 20.2894 53.5053 21.3002L57.2433 22.7242C57.6044 21.7764 57.9686 20.8923 58.3329 20.0702L54.6759 18.4497ZM53.5053 21.3002C53.1919 22.123 52.8873 22.9733 52.5922 23.8499L56.3831 25.1263C56.6623 24.2969 56.9493 23.4958 57.2433 22.7242L53.5053 21.3002ZM51.0444 29.0132C50.5997 30.6837 50.1856 32.4265 49.8051 34.2351L53.7194 35.0586C54.0861 33.3153 54.4841 31.6412 54.9098 30.0422L51.0444 29.0132ZM48.8253 39.4963C48.6835 40.3651 48.5491 41.2461 48.4224 42.1389L52.3828 42.7008C52.5056 41.8352 52.6358 40.9817 52.7731 40.1408L48.8253 39.4963ZM50.5376 44.4153C51.5656 44.3458 52.6029 44.2847 53.6489 44.2322L53.4486 40.2372C52.3795 40.2908 51.3189 40.3533 50.2676 40.4244L50.5376 44.4153ZM59.8812 44.0255C60.9143 44.0086 61.9541 44 63 44V40C61.9322 40 60.8706 40.0088 59.8156 40.0261L59.8812 44.0255ZM63 44C64.0459 44 65.0857 44.0086 66.1188 44.0255L66.1844 40.0261C65.1294 40.0088 64.0677 40 63 40V44ZM72.3511 44.2322C73.3971 44.2847 74.4344 44.3458 75.4624 44.4153L75.7324 40.4244C74.6811 40.3533 73.6205 40.2908 72.5514 40.2372L72.3511 44.2322ZM77.5776 42.1389C77.4509 41.2461 77.3165 40.3651 77.1747 39.4963L73.2269 40.1408C73.3642 40.9817 73.4944 41.8352 73.6172 42.7008L77.5776 42.1389ZM76.1949 34.2351C75.8144 32.4265 75.4003 30.6836 74.9556 29.0132L71.0902 30.0422C71.5159 31.6412 71.9139 33.3153 72.2806 35.0586L76.1949 34.2351ZM73.4078 23.8499C73.1126 22.9733 72.8081 22.123 72.4947 21.3002L68.7567 22.7242C69.0506 23.4958 69.3376 24.2969 69.6169 25.1263L73.4078 23.8499ZM72.4947 21.3002C72.1096 20.2894 71.7185 19.3397 71.3241 18.4497L67.667 20.0702C68.0313 20.8923 68.3956 21.7764 68.7567 22.7242L72.4947 21.3002ZM68.3786 12.9193C67.7143 11.9019 67.0504 11.0296 66.3975 10.3048L63.4253 12.9817C63.9166 13.5272 64.457 14.2296 65.0292 15.106L68.3786 12.9193ZM66.3975 10.3048C66.2253 10.1136 66.0596 9.93845 65.9005 9.77804L63.061 12.5954C63.1726 12.7079 63.2941 12.836 63.4253 12.9817L66.3975 10.3048ZM64.7081 8.73983C64.3723 8.49729 64.0732 8.32709 63.8113 8.21082L62.1887 11.867C62.162 11.8551 62.2215 11.8781 62.3658 11.9823L64.7081 8.73983ZM63 -2C61.9413 -2 60.9007 -1.85181 59.885 -1.56735L60.9638 2.28443C61.6405 2.09491 62.3184 2 63 2V-2ZM54.6066 1.27632C53.2232 2.40448 51.9202 3.79218 50.6995 5.39271L53.8801 7.81843C54.9484 6.41759 56.0386 5.26997 57.1346 4.3762L54.6066 1.27632ZM47.7063 10.0144C46.8699 11.5183 46.0752 13.1424 45.3249 14.8738L48.9952 16.4642C49.6991 14.8398 50.4364 13.3352 51.202 11.9587L47.7063 10.0144ZM43.3821 19.8783C42.8165 21.5046 42.2834 23.2034 41.7849 24.968L45.6343 26.0554C46.1126 24.3622 46.6222 22.7392 47.1602 21.1923L43.3821 19.8783ZM40.4707 30.1215C40.0846 31.8063 39.7275 33.5398 39.4011 35.3173L43.3353 36.0397C43.6516 34.3175 43.997 32.6411 44.3696 31.0151L40.4707 30.1215ZM38.5481 40.5482C38.4241 41.4145 38.307 42.2895 38.197 43.1728L42.1664 43.6668C42.2733 42.8077 42.3872 41.957 42.5077 41.1153L38.5481 40.5482ZM39.9247 41.4364C39.1255 41.5399 38.3338 41.6487 37.5501 41.7627L38.1255 45.7211C38.8885 45.6101 39.6597 45.5041 40.4387 45.4032L39.9247 41.4364ZM32.8133 42.5307C31.2011 42.8201 29.6289 43.1323 28.1005 43.466L28.9537 47.3739C30.4316 47.0512 31.955 46.7487 33.5202 46.4677L32.8133 42.5307ZM23.4234 44.5901C21.8141 45.0147 20.2638 45.4653 18.7783 45.9404L19.9969 49.7503C21.4125 49.2975 22.8964 48.866 24.4437 48.4578L23.4234 44.5901ZM14.1985 47.5639C12.6039 48.1907 11.1052 48.8517 9.71306 49.5451L11.4965 53.1256C12.7723 52.4901 14.163 51.8758 15.6618 51.2866L14.1985 47.5639ZM5.39802 52.0302C3.86725 53.0602 2.52748 54.1611 1.42331 55.334L4.33574 58.0758C5.19436 57.1638 6.29195 56.2499 7.63093 55.349L5.39802 52.0302ZM-1.51794 60.0495C-1.83336 61.0048 -2 61.9914 -2 63H2C2 62.438 2.09198 61.8742 2.28036 61.3037L-1.51794 60.0495ZM-2 63C-2 64.0086 -1.83336 64.9952 -1.51794 65.9505L2.28036 64.6963C2.09198 64.1258 2 63.562 2 63H-2ZM1.42331 70.666C2.52749 71.8389 3.86725 72.9398 5.39802 73.9697L7.63093 70.651C6.29196 69.7501 5.19436 68.8362 4.33574 67.9241L1.42331 70.666ZM9.71306 76.4548C11.1052 77.1483 12.6039 77.8093 14.1985 78.4361L15.6618 74.7133C14.163 74.1242 12.7723 73.5099 11.4965 72.8744L9.71306 76.4548ZM18.7783 80.0596C20.2638 80.5347 21.8141 80.9853 23.4234 81.4098L24.4437 77.5422C22.8965 77.134 21.4125 76.7025 19.9969 76.2497L18.7783 80.0596ZM28.1005 82.534C29.6289 82.8677 31.2011 83.1798 32.8134 83.4693L33.5202 79.5323C31.955 79.2512 30.4316 78.9487 28.9537 78.6261L28.1005 82.534ZM37.5501 84.2373C38.3338 84.3512 39.1255 84.46 39.9247 84.5636L40.4387 80.5968C39.6597 80.4958 38.8885 80.3898 38.1255 80.2789L37.5501 84.2373ZM38.197 82.8272C38.307 83.7104 38.4241 84.5855 38.5481 85.4518L42.5077 84.8846C42.3872 84.0429 42.2733 83.1923 42.1664 82.3332L38.197 82.8272ZM39.4011 90.6827C39.7275 92.4602 40.0846 94.1937 40.4707 95.8785L44.3696 94.9849C43.997 93.3589 43.6516 91.6825 43.3353 89.9602L39.4011 90.6827ZM41.7849 101.032C42.2834 102.797 42.8165 104.495 43.3821 106.122L47.1602 104.808C46.6222 103.261 46.1126 101.638 45.6343 99.9446L41.7849 101.032ZM45.3249 111.126C46.0752 112.858 46.8699 114.482 47.7063 115.986L51.202 114.041C50.4364 112.665 49.6991 111.16 48.9952 109.536L45.3249 111.126ZM50.6995 120.607C51.9202 122.208 53.2232 123.596 54.6066 124.724L57.1346 121.624C56.0386 120.73 54.9485 119.582 53.8801 118.182L50.6995 120.607ZM59.885 127.567C60.9007 127.852 61.9413 128 63 128V124C62.3184 124 61.6405 123.905 60.9638 123.716L59.885 127.567ZM63 128C64.0587 128 65.0993 127.852 66.115 127.567L65.0362 123.716C64.3595 123.905 63.6816 124 63 124V128ZM71.3934 124.724C72.7768 123.596 74.0798 122.208 75.3005 120.607L72.1199 118.182C71.0516 119.582 69.9614 120.73 68.8654 121.624L71.3934 124.724ZM78.2937 115.986C79.1301 114.482 79.9248 112.858 80.6751 111.126L77.0048 109.536C76.3009 111.16 75.5636 112.665 74.798 114.041L78.2937 115.986ZM82.6179 106.122C83.1835 104.495 83.7166 102.797 84.215 101.032L80.3657 99.9446C79.8874 101.638 79.3778 103.261 78.8398 104.808L82.6179 106.122ZM85.5293 95.8785C85.9154 94.1937 86.2725 92.4602 86.5989 90.6827L82.6647 89.9602C82.3484 91.6825 82.003 93.3589 81.6304 94.9849L85.5293 95.8785ZM87.4519 85.4518C87.5759 84.5855 87.693 83.7104 87.8029 82.8272L83.8336 82.3332C83.7267 83.1923 83.6128 84.0429 83.4923 84.8846L87.4519 85.4518ZM86.0753 84.5636C86.8745 84.46 87.6662 84.3512 88.4499 84.2373L87.8745 80.2789C87.1115 80.3898 86.3403 80.4958 85.5612 80.5968L86.0753 84.5636ZM93.1867 83.4693C94.7989 83.1798 96.3711 82.8677 97.8995 82.534L97.0463 78.6261C95.5684 78.9487 94.045 79.2512 92.4798 79.5323L93.1867 83.4693ZM102.577 81.4098C104.186 80.9853 105.736 80.5347 107.222 80.0596L106.003 76.2497C104.587 76.7025 103.104 77.134 101.556 77.5422L102.577 81.4098ZM111.801 78.4361C113.396 77.8093 114.895 77.1483 116.287 76.4548L114.504 72.8744C113.228 73.5099 111.837 74.1242 110.338 74.7133L111.801 78.4361ZM120.602 73.9697C122.133 72.9398 123.473 71.8389 124.577 70.666L121.664 67.9241C120.806 68.8362 119.708 69.7501 118.369 70.651L120.602 73.9697ZM127.518 65.9504C127.833 64.9952 128 64.0085 128 63H124C124 63.562 123.908 64.1258 123.72 64.6963L127.518 65.9504ZM128 63C128 61.9914 127.833 61.0048 127.518 60.0495L123.72 61.3037C123.908 61.8742 124 62.438 124 63H128ZM124.577 55.334C123.473 54.1611 122.133 53.0602 120.602 52.0302L118.369 55.349C119.708 56.2499 120.806 57.1638 121.664 58.0758L124.577 55.334ZM116.287 49.5451C114.895 48.8517 113.396 48.1907 111.801 47.5639L110.338 51.2866C111.837 51.8758 113.228 52.4901 114.504 53.1256L116.287 49.5451ZM107.222 45.9404C105.736 45.4653 104.186 45.0147 102.577 44.5901L101.556 48.4578C103.104 48.866 104.587 49.2975 106.003 49.7503L107.222 45.9404ZM97.8995 43.466C96.3711 43.1323 94.7989 42.8201 93.1866 42.5306L92.4798 46.4677C94.045 46.7487 95.5684 47.0512 97.0463 47.3739L97.8995 43.466ZM88.4499 41.7627C87.6662 41.6487 86.8745 41.5399 86.0753 41.4364L85.5612 45.4032C86.3403 45.5041 87.1115 45.6101 87.8745 45.7211L88.4499 41.7627ZM87.8029 43.1728C87.693 42.2895 87.5759 41.4145 87.4519 40.5482L83.4923 41.1153C83.6128 41.957 83.7266 42.8077 83.8336 43.6668L87.8029 43.1728ZM86.5989 35.3173C86.2725 33.5398 85.9154 31.8063 85.5293 30.1215L81.6304 31.0151C82.003 32.6411 82.3484 34.3175 82.6647 36.0397L86.5989 35.3173ZM84.215 24.9679C83.7166 23.2034 83.1835 21.5046 82.6178 19.8783L78.8398 21.1923C79.3778 22.7392 79.8874 24.3622 80.3657 26.0554L84.215 24.9679ZM80.675 14.8738C79.9248 13.1424 79.1301 11.5183 78.2937 10.0144L74.798 11.9587C75.5636 13.3352 76.3009 14.8398 77.0048 16.4642L80.675 14.8738ZM75.3005 5.39272C74.0798 3.79219 72.7768 2.40448 71.3934 1.27632L68.8654 4.3762C69.9613 5.26997 71.0515 6.4176 72.1199 7.81844L75.3005 5.39272ZM66.115 -1.56735C65.0993 -1.85181 64.0587 -2 63 -2V2C63.6816 2 64.3595 2.09491 65.0362 2.28443L66.115 -1.56735ZM22.247 66.465C21.2982 66.1488 20.4127 65.8298 19.5887 65.5111L18.1457 69.2418C19.0314 69.5844 19.9765 69.9246 20.9821 70.2598L22.247 66.465ZM14.5618 63.1843C13.6494 62.6667 12.928 62.1822 12.3785 61.7492L9.90264 64.8908C10.6417 65.4733 11.538 66.0677 12.588 66.6634L14.5618 63.1843ZM12.3785 61.7492C12.3495 61.7263 12.3212 61.7038 12.2938 61.6818L9.78973 64.801C9.82661 64.8306 9.86425 64.8606 9.90265 64.8908L12.3785 61.7492ZM12.1293 61.5471C12.1018 61.5241 12.0753 61.5017 12.0498 61.4799L9.45034 64.5201C9.48718 64.5516 9.52494 64.5835 9.56363 64.6159L12.1293 61.5471ZM12.0498 64.5201C12.0753 64.4983 12.1018 64.4759 12.1293 64.4529L9.56363 61.3841C9.52494 61.4165 9.48718 61.4484 9.45034 61.4799L12.0498 64.5201ZM12.2938 64.3181C12.3212 64.2961 12.3495 64.2737 12.3785 64.2508L9.90265 61.1091C9.86425 61.1394 9.82661 61.1693 9.78973 61.1989L12.2938 64.3181ZM12.3785 64.2508C12.928 63.8177 13.6494 63.3333 14.5618 62.8157L12.588 59.3366C11.538 59.9323 10.6417 60.5267 9.90264 61.1091L12.3785 64.2508ZM19.5887 60.4889C20.4127 60.1701 21.2982 59.8512 22.247 59.5349L20.9821 55.7402C19.9765 56.0754 19.0314 56.4156 18.1457 56.7582L19.5887 60.4889ZM22.247 59.5349C22.9253 59.3089 23.6256 59.0875 24.3474 58.8712L23.1994 55.0395C22.4402 55.267 21.7008 55.5006 20.9821 55.7402L22.247 59.5349ZM28.6206 57.7138C30.0097 57.374 31.4577 57.0527 32.9602 56.7518L32.1749 52.8297C30.6199 53.141 29.1169 53.4745 27.6704 53.8283L28.6206 57.7138ZM37.345 55.9585C38.0702 55.8406 38.8057 55.7274 39.551 55.619L38.9751 51.6606C38.2082 51.7722 37.4507 51.8888 36.7032 52.0104L37.345 55.9585ZM37.2663 53.5265C37.2218 54.3111 37.1827 55.1003 37.1492 55.8938L41.1456 56.0626C41.1783 55.2883 41.2164 54.5184 41.2599 53.7531L37.2663 53.5265ZM37.0165 60.6309C37.0055 61.4171 37 62.2069 37 63H41C41 62.2254 41.0054 61.4542 41.0161 60.6866L37.0165 60.6309ZM37 63C37 63.7931 37.0055 64.5829 37.0165 65.3691L41.0161 65.3134C41.0054 64.5458 41 63.7746 41 63H37ZM37.1492 70.1062C37.1827 70.8997 37.2218 71.6889 37.2663 72.4735L41.2599 72.2469C41.2164 71.4816 41.1783 70.7117 41.1456 69.9374L37.1492 70.1062ZM39.551 70.381C38.8057 70.2726 38.0702 70.1593 37.345 70.0415L36.7032 73.9896C37.4507 74.1111 38.2081 74.2278 38.9751 74.3393L39.551 70.381ZM32.9602 69.2481C31.4577 68.9473 30.0097 68.6259 28.6206 68.2862L27.6704 72.1717C29.1169 72.5255 30.6199 72.8589 32.1749 73.1703L32.9602 69.2481ZM24.3474 67.1287C23.6256 66.9125 22.9253 66.6911 22.247 66.465L20.9821 70.2598C21.7008 70.4993 22.4402 70.733 23.1994 70.9605L24.3474 67.1287ZM47 63C47 63.8906 47.0074 64.7755 47.0219 65.6544L51.0214 65.5881C51.0072 64.7313 51 63.8685 51 63H47ZM47.1994 70.9616C47.2445 71.853 47.2969 72.737 47.3565 73.6131L51.3473 73.3414C51.2893 72.4887 51.2382 71.6279 51.1943 70.7597L47.1994 70.9616ZM49.1962 75.4712C50.3314 75.5598 51.481 75.6379 52.6442 75.705L52.8745 71.7116C51.7382 71.6461 50.6156 71.5698 49.5077 71.4833L49.1962 75.4712ZM59.5472 75.9677C60.6881 75.9891 61.8393 76 63 76V72C61.8643 72 60.7382 71.9893 59.6223 71.9684L59.5472 75.9677ZM63 76C64.1607 76 65.3119 75.9891 66.4528 75.9677L66.3777 71.9684C65.2618 71.9893 64.1357 72 63 72V76ZM73.3558 75.705C74.519 75.6379 75.6686 75.5598 76.8038 75.4712L76.4923 71.4833C75.3844 71.5698 74.2618 71.6461 73.1255 71.7116L73.3558 75.705ZM78.6434 73.6131C78.7031 72.737 78.7555 71.853 78.8006 70.9616L74.8057 70.7597C74.7618 71.6279 74.7107 72.4887 74.6527 73.3414L78.6434 73.6131ZM78.9781 65.6544C78.9926 64.7755 79 63.8906 79 63H75C75 63.8685 74.9928 64.7314 74.9786 65.5881L78.9781 65.6544ZM79 63C79 62.1094 78.9926 61.2245 78.9781 60.3456L74.9786 60.4119C74.9928 61.2686 75 62.1315 75 63H79ZM78.8006 55.0384C78.7555 54.147 78.7031 53.263 78.6434 52.3869L74.6527 52.6586C74.7107 53.5113 74.7618 54.372 74.8057 55.2403L78.8006 55.0384ZM76.8038 50.5288C75.6686 50.4401 74.519 50.362 73.3558 50.295L73.1255 54.2883C74.2618 54.3539 75.3844 54.4301 76.4923 54.5167L76.8038 50.5288ZM66.4528 50.0323C65.3119 50.0109 64.1607 50 63 50V54C64.1357 54 65.2618 54.0107 66.3777 54.0316L66.4528 50.0323ZM63 50C61.8393 50 60.6881 50.0109 59.5472 50.0323L59.6223 54.0316C60.7382 54.0107 61.8643 54 63 54V50ZM52.6442 50.295C51.481 50.362 50.3314 50.4401 49.1962 50.5288L49.5077 54.5167C50.6156 54.4301 51.7382 54.3539 52.8745 54.2883L52.6442 50.295ZM47.3565 52.3869C47.2969 53.263 47.2445 54.147 47.1994 55.0384L51.1943 55.2403C51.2382 54.372 51.2893 53.5113 51.3473 52.6586L47.3565 52.3869ZM47.0219 60.3456C47.0074 61.2245 47 62.1094 47 63H51C51 62.1315 51.0072 61.2686 51.0214 60.4119L47.0219 60.3456ZM48.4224 83.861C48.5491 84.7538 48.6835 85.6349 48.8253 86.5037L52.7731 85.8592C52.6358 85.0183 52.5056 84.1647 52.3828 83.2991L48.4224 83.861ZM49.8051 91.7649C50.1856 93.5735 50.5997 95.3163 51.0444 96.9867L54.9098 95.9578C54.4841 94.3588 54.0861 92.6846 53.7194 90.9414L49.8051 91.7649ZM52.5922 102.15C52.8873 103.027 53.1919 103.877 53.5053 104.7L57.2433 103.276C56.9493 102.504 56.6623 101.703 56.3831 100.874L52.5922 102.15ZM53.5053 104.7C53.8904 105.711 54.2815 106.66 54.6759 107.55L58.3329 105.93C57.9687 105.108 57.6044 104.224 57.2433 103.276L53.5053 104.7ZM57.6214 113.081C58.2857 114.098 58.9496 114.97 59.6025 115.695L62.5747 113.018C62.0834 112.473 61.543 111.77 60.9708 110.894L57.6214 113.081ZM59.6025 115.695C59.7747 115.886 59.9404 116.062 60.0995 116.222L62.939 113.405C62.8274 113.292 62.7059 113.164 62.5747 113.018L59.6025 115.695ZM61.2919 117.26C61.6276 117.503 61.9267 117.673 62.1887 117.789L63.8113 114.133C63.838 114.145 63.7785 114.122 63.6342 114.018L61.2919 117.26ZM63.8113 117.789C64.0733 117.673 64.3724 117.503 64.7081 117.26L62.3658 114.018C62.2215 114.122 62.162 114.145 62.1887 114.133L63.8113 117.789ZM65.9005 116.222C66.0596 116.062 66.2253 115.886 66.3975 115.695L63.4253 113.018C63.2941 113.164 63.1726 113.292 63.061 113.405L65.9005 116.222ZM66.3975 115.695C67.0504 114.97 67.7143 114.098 68.3786 113.081L65.0292 110.894C64.457 111.77 63.9166 112.473 63.4253 113.018L66.3975 115.695ZM71.3241 107.55C71.7185 106.66 72.1096 105.711 72.4947 104.7L68.7567 103.276C68.3956 104.224 68.0313 105.108 67.6671 105.93L71.3241 107.55ZM72.4947 104.7C72.8081 103.877 73.1127 103.027 73.4078 102.15L69.6169 100.874C69.3376 101.703 69.0507 102.504 68.7567 103.276L72.4947 104.7ZM74.9556 96.9867C75.4003 95.3163 75.8144 93.5735 76.1949 91.7649L72.2806 90.9414C71.9139 92.6846 71.5159 94.3588 71.0902 95.9578L74.9556 96.9867ZM77.1747 86.5037C77.3165 85.6349 77.4509 84.7538 77.5776 83.861L73.6172 83.2991C73.4944 84.1647 73.3642 85.0183 73.2269 85.8592L77.1747 86.5037ZM75.4624 81.5846C74.4344 81.6542 73.3971 81.7153 72.3511 81.7678L72.5514 85.7627C73.6205 85.7091 74.6811 85.6466 75.7324 85.5755L75.4624 81.5846ZM66.1188 81.9744C65.0857 81.9914 64.0459 82 63 82V86C64.0677 86 65.1294 85.9912 66.1844 85.9739L66.1188 81.9744ZM63 82C61.9541 82 60.9143 81.9914 59.8812 81.9744L59.8156 85.9739C60.8706 85.9912 61.9322 86 63 86V82ZM53.6489 81.7678C52.6029 81.7153 51.5656 81.6542 50.5376 81.5846L50.2676 85.5755C51.3189 85.6466 52.3795 85.7091 53.4486 85.7627L53.6489 81.7678ZM88.7337 72.4735C88.7782 71.6889 88.8173 70.8997 88.8508 70.1062L84.8544 69.9374C84.8217 70.7117 84.7836 71.4816 84.7401 72.2469L88.7337 72.4735ZM88.9835 65.3691C88.9945 64.5829 89 63.7931 89 63H85C85 63.7746 84.9946 64.5458 84.9839 65.3134L88.9835 65.3691ZM89 63C89 62.2069 88.9945 61.4171 88.9835 60.6309L84.9839 60.6866C84.9946 61.4542 85 62.2254 85 63H89ZM88.8508 55.8938C88.8173 55.1003 88.7782 54.3111 88.7337 53.5265L84.7401 53.7531C84.7836 54.5184 84.8217 55.2883 84.8544 56.0626L88.8508 55.8938ZM86.449 55.619C87.1943 55.7274 87.9297 55.8406 88.655 55.9585L89.2968 52.0103C88.5493 51.8888 87.7918 51.7722 87.0248 51.6606L86.449 55.619ZM93.0398 56.7518C94.5423 57.0527 95.9902 57.374 97.3793 57.7138L98.3296 53.8283C96.8831 53.4745 95.3801 53.141 93.8251 52.8297L93.0398 56.7518ZM101.653 58.8712C102.374 59.0875 103.075 59.3089 103.753 59.5349L105.018 55.7402C104.299 55.5006 103.56 55.267 102.801 55.0395L101.653 58.8712ZM103.753 59.5349C104.702 59.8512 105.587 60.1701 106.411 60.4889L107.854 56.7582C106.969 56.4156 106.024 56.0754 105.018 55.7402L103.753 59.5349ZM111.438 62.8157C112.351 63.3333 113.072 63.8177 113.621 64.2508L116.097 61.1091C115.358 60.5267 114.462 59.9323 113.412 59.3366L111.438 62.8157ZM113.621 64.2508C113.651 64.2737 113.679 64.2961 113.706 64.3181L116.21 61.1989C116.173 61.1693 116.136 61.1394 116.097 61.1091L113.621 64.2508ZM113.871 64.4529C113.898 64.4759 113.925 64.4983 113.95 64.5201L116.55 61.4799C116.513 61.4484 116.475 61.4164 116.436 61.3841L113.871 64.4529ZM113.95 61.4799C113.925 61.5017 113.898 61.5241 113.871 61.5471L116.436 64.6159C116.475 64.5835 116.513 64.5516 116.55 64.5201L113.95 61.4799ZM113.706 61.6818C113.679 61.7038 113.651 61.7263 113.621 61.7492L116.097 64.8908C116.136 64.8606 116.173 64.8306 116.21 64.801L113.706 61.6818ZM113.621 61.7492C113.072 62.1822 112.351 62.6667 111.438 63.1843L113.412 66.6634C114.462 66.0677 115.358 65.4733 116.097 64.8908L113.621 61.7492ZM106.411 65.5111C105.587 65.8298 104.702 66.1488 103.753 66.465L105.018 70.2598C106.024 69.9246 106.969 69.5844 107.854 69.2418L106.411 65.5111ZM103.753 66.465C103.075 66.6911 102.374 66.9125 101.653 67.1287L102.801 70.9605C103.56 70.733 104.299 70.4993 105.018 70.2598L103.753 66.465ZM97.3793 68.2862C95.9903 68.6259 94.5423 68.9473 93.0398 69.2481L93.8251 73.1703C95.3801 72.8589 96.8831 72.5255 98.3296 72.1717L97.3793 68.2862ZM88.655 70.0415C87.9297 70.1593 87.1943 70.2726 86.449 70.381L87.0248 74.3393C87.7918 74.2278 88.5493 74.1111 89.2968 73.9896L88.655 70.0415ZM64.8318 115.959C64.8457 116.434 64.6899 116.801 64.5627 117.021C64.4367 117.238 64.2963 117.386 64.2096 117.468C64.0406 117.628 63.8824 117.721 63.8211 117.756C63.6815 117.835 63.5641 117.879 63.5267 117.893C63.4293 117.929 63.3515 117.948 63.3201 117.956L62.3684 114.071C62.3292 114.08 62.2456 114.102 62.1444 114.139C62.105 114.154 61.9861 114.198 61.8456 114.278C61.7838 114.313 61.6253 114.406 61.456 114.567C61.3703 114.648 60.807 115.175 60.8335 116.076L64.8318 115.959ZM63.1787 117.984C63.1658 117.986 63.1539 117.988 63.1428 117.99L62.6197 114.024C62.5998 114.027 62.5795 114.03 62.559 114.033L63.1787 117.984ZM62.2915 114.096C62.3009 114.093 62.3113 114.09 62.3227 114.086L63.4158 117.934C63.4346 117.929 63.453 117.923 63.471 117.918L62.2915 114.096ZM62.4559 114.055C62.4861 114.049 62.5701 114.032 62.6809 114.024C62.7181 114.021 62.8668 114.009 63.056 114.03C63.1302 114.039 63.3804 114.068 63.67 114.201C63.91 114.312 64.7977 114.807 64.8317 115.958L60.8335 116.077C60.8676 117.228 61.7554 117.723 61.9956 117.834C62.2855 117.968 62.5361 117.997 62.6108 118.005C62.8011 118.027 62.9512 118.015 62.9906 118.012C63.1054 118.003 63.1956 117.986 63.2339 117.978L62.4559 114.055ZM65.1665 116.076C65.193 115.175 64.6296 114.648 64.544 114.567C64.3747 114.406 64.2162 114.313 64.1544 114.278C64.0139 114.198 63.895 114.154 63.8556 114.139C63.7544 114.102 63.6708 114.08 63.6316 114.071L62.6799 117.956C62.6485 117.948 62.5707 117.929 62.4733 117.893C62.4359 117.879 62.3184 117.835 62.1789 117.756C62.1176 117.721 61.9594 117.628 61.7904 117.468C61.7037 117.386 61.5633 117.238 61.4373 117.021C61.3101 116.801 61.1543 116.434 61.1682 115.959L65.1665 116.076ZM63.441 114.033C63.4205 114.03 63.4002 114.027 63.3803 114.024L62.8572 117.99C62.8461 117.988 62.8342 117.986 62.8213 117.984L63.441 114.033ZM62.5289 117.918C62.5419 117.922 62.555 117.926 62.5683 117.93L63.6868 114.089C63.6945 114.091 63.7018 114.094 63.7085 114.096L62.5289 117.918ZM62.6721 117.957C62.6968 117.963 62.7248 117.97 62.7557 117.976L63.5529 114.056C63.5785 114.062 63.6006 114.067 63.6186 114.071L62.6721 117.957ZM62.7568 117.976C62.7709 117.979 62.7863 117.982 62.8029 117.985L63.5123 114.049C63.5268 114.051 63.54 114.054 63.5518 114.056L62.7568 117.976ZM63.0034 118.011C63.0425 118.014 63.1903 118.027 63.3776 118.007C63.4507 117.999 63.6982 117.972 63.9856 117.843C64.2119 117.741 65.1297 117.253 65.1664 116.08L61.1683 115.955C61.205 114.782 62.1227 114.294 62.3487 114.193C62.6359 114.064 62.883 114.037 62.9555 114.029C63.1418 114.009 63.288 114.021 63.325 114.024L63.0034 118.011ZM63.708 11.9044C63.6986 11.9073 63.6883 11.9104 63.6769 11.9136L62.5846 8.06565C62.5658 8.07098 62.5475 8.07643 62.5295 8.08196L63.708 11.9044ZM63.5441 11.9454C63.5141 11.9513 63.4298 11.9676 63.3188 11.9762C63.2816 11.9791 63.132 11.991 62.9418 11.9695C62.8672 11.961 62.6151 11.9312 62.3237 11.7957C62.0775 11.6812 61.1956 11.1803 61.1679 10.0306L65.1668 9.93439C65.1391 8.78458 64.2571 8.28348 64.0107 8.16885C63.719 8.0332 63.4664 8.00331 63.3914 7.99482C63.2001 7.97318 63.049 7.98511 63.0097 7.98815C62.8946 7.99708 62.8042 8.01423 62.7661 8.02179L63.5441 11.9454ZM61.1679 10.0306C61.1565 9.55647 61.3135 9.19092 61.4407 8.97335C61.5667 8.75778 61.7067 8.61128 61.7931 8.52954C61.9617 8.37018 62.1193 8.27791 62.1805 8.24323C62.3196 8.16435 62.4368 8.1208 62.4741 8.10705C62.5713 8.0713 62.6489 8.05167 62.6803 8.044L63.6312 11.9293C63.6703 11.9198 63.7537 11.8984 63.8548 11.8612C63.8941 11.8468 64.0127 11.8026 64.1528 11.7231C64.2145 11.6882 64.3725 11.5957 64.5412 11.4361C64.6262 11.3558 65.1884 10.8326 65.1668 9.93439L61.1679 10.0306ZM62.8214 8.01555C62.8342 8.01354 62.8461 8.01183 62.8572 8.01038L63.3803 11.976C63.4002 11.9734 63.4204 11.9705 63.4409 11.9673L62.8214 8.01555Z" fill="#050505" mask="url(#path-1-inside-1)"/>
</svg>
