<svg width="238" height="238" viewBox="0 0 238 238" fill="none" xmlns="http://www.w3.org/2000/svg">
<path d="M195.198 78.54C191.541 82.2532 187.884 85.9512 184.212 89.6645C148.154 53.1408 89.6853 53.1408 53.6277 89.6645C49.9705 85.9664 46.3134 82.2532 42.6562 78.54C84.7738 35.8682 153.081 35.8682 195.198 78.54Z" fill="black"/>
<path d="M142.262 144.616L175.493 164.034L182.747 151.312L133.421 122.443L142.216 117.33L142.247 117.345L175.478 136.794L182.732 124.086L133.421 95.2328L144.423 88.8107L137.169 76.1035L118.929 86.7715L100.688 76.1035L93.4343 88.8107L104.436 95.2328L55.125 124.086L62.3788 136.794L95.6105 117.345L104.436 122.504L55.125 151.357L62.3788 164.065L95.6105 144.616L104.436 149.775L55.125 178.613L62.3788 191.32L118.913 158.236L118.929 158.251L175.478 191.32L182.732 178.598L133.421 149.714L142.232 144.601L142.262 144.616ZM118.929 103.709L127.724 108.853L118.959 113.997L118.929 113.982L110.103 108.853L118.929 103.709ZM118.959 141.283L118.929 141.268L110.088 136.124L110.103 136.109L118.898 130.965L118.929 130.98L127.754 136.139L118.959 141.283Z" fill="black"/>
<path fill-rule="evenodd" clip-rule="evenodd" d="M221.057 16.8055H16.8055V221.057H221.057V16.8055ZM0 0V237.862H237.862V0H0Z" fill="black"/>
</svg>
