<?xml version="1.0" standalone="no"?>
<!DOCTYPE svg PUBLIC "-//W3C//DTD SVG 20010904//EN"
 "http://www.w3.org/TR/2001/REC-SVG-20010904/DTD/svg10.dtd">
<svg version="1.0" xmlns="http://www.w3.org/2000/svg"
 width="1568.000000pt" height="1568.000000pt" viewBox="0 0 1568.000000 1568.000000"
 preserveAspectRatio="xMidYMid meet">
<metadata>
Created by potrace 1.11, written by Peter Selinger 2001-2013
</metadata>
<g transform="translate(0.000000,1568.000000) scale(0.100000,-0.100000)"
fill="#000000" stroke="none">
<path d="M4000 14990 l0 -690 38 0 c54 -1 7571 -1 7610 0 l32 0 0 690 0 690
-3840 0 -3840 0 0 -690z"/>
<path d="M4000 10308 c0 -975 3 -1228 13 -1229 75 -5 330 -2 334 4 2 4 9 4 15
0 16 -9 939 -10 945 0 2 4 12 4 21 -1 13 -6 521 -8 577 -2 6 0 21 18 35 40 13
22 28 40 32 40 4 0 8 5 8 10 0 6 15 27 33 48 34 39 281 286 307 306 149 119
309 224 445 291 22 11 43 24 46 28 3 5 9 8 13 7 4 -1 55 19 115 44 60 25 115
46 123 46 8 0 18 4 24 9 5 4 29 14 54 20 25 7 61 17 80 22 88 24 215 49 335
64 144 19 418 20 556 1 24 -3 62 -8 84 -11 22 -3 51 -7 65 -10 14 -3 40 -8 59
-11 19 -3 45 -10 58 -15 13 -5 27 -8 31 -7 4 1 16 -1 27 -4 11 -4 54 -16 95
-28 41 -12 84 -26 95 -30 11 -5 46 -18 77 -29 32 -11 66 -25 75 -30 10 -6 61
-31 113 -55 52 -25 113 -57 135 -71 22 -14 54 -32 71 -39 17 -8 36 -22 44 -30
7 -9 19 -16 26 -16 8 0 14 -4 14 -8 0 -4 12 -15 28 -24 58 -35 322 -258 322
-272 0 -1 24 -27 53 -57 65 -69 90 -98 147 -174 l45 -60 480 2 c264 0 485 2
490 3 6 1 15 1 20 0 6 -2 214 -3 462 -4 l453 -1 0 1230 0 1231 -733 0 -732 0
0 -411 0 -412 -60 47 c-78 61 -270 190 -283 190 -6 0 -12 4 -14 9 -8 23 -348
202 -513 270 -55 23 -109 46 -120 51 -42 20 -354 119 -440 139 -27 7 -66 16
-85 21 -19 5 -60 14 -90 20 -54 9 -88 16 -132 24 -41 8 -102 17 -148 22 -25 3
-65 7 -90 10 -230 24 -711 23 -751 -2 -8 -5 -9 -3 -4 6 5 8 4 11 -1 7 -9 -5
-28 -8 -134 -22 -95 -12 -117 -16 -137 -19 -20 -4 -77 -14 -118 -21 -76 -13
-379 -90 -396 -101 -5 -3 -17 -7 -26 -9 -18 -3 -151 -49 -188 -64 -91 -38
-151 -61 -159 -61 -5 0 -17 -6 -25 -14 -9 -8 -25 -16 -36 -18 -11 -1 -22 -5
-25 -8 -6 -6 -157 -79 -168 -81 -4 -1 -24 -13 -44 -25 -21 -13 -40 -24 -43
-24 -19 0 -293 -177 -439 -284 -38 -28 -72 -51 -75 -51 -3 0 -6 182 -6 405
l-1 405 -732 1 -732 0 0 -1228z"/>
<path d="M4260 6308 c0 -24 159 -370 173 -376 4 -2 5 -7 2 -12 -3 -4 2 -13 10
-20 8 -7 15 -16 15 -20 0 -38 314 -518 376 -575 6 -5 39 -46 75 -90 66 -83
311 -332 415 -421 48 -43 108 -90 239 -191 55 -42 85 -63 93 -63 6 0 12 -4 14
-8 5 -12 144 -102 157 -102 6 0 11 -4 11 -10 0 -5 7 -10 15 -10 8 0 15 -4 15
-9 0 -5 15 -14 33 -22 17 -7 34 -16 37 -19 9 -12 103 -60 115 -60 8 0 15 -4
17 -8 6 -16 324 -160 423 -192 22 -7 45 -16 50 -20 8 -5 88 -32 105 -35 3 0
10 -3 15 -6 6 -4 24 -10 40 -14 17 -4 37 -9 45 -11 58 -17 324 -83 351 -87 19
-3 48 -9 64 -12 17 -4 44 -8 60 -10 17 -2 46 -6 65 -10 19 -3 55 -8 80 -10 25
-3 61 -7 80 -9 146 -19 433 -24 620 -11 204 13 249 18 385 42 17 3 41 7 55 8
14 2 34 6 45 8 11 3 40 8 65 13 56 10 51 9 75 17 11 3 32 8 46 11 14 2 62 14
105 26 43 13 84 23 89 25 6 1 17 4 25 7 8 3 47 16 85 28 39 13 81 27 95 33 14
6 30 11 35 11 6 1 28 9 49 19 22 9 61 25 88 34 26 10 48 21 48 25 0 5 7 8 16
8 22 0 344 161 344 172 0 5 4 7 9 4 5 -3 14 1 21 9 7 8 16 15 21 15 23 0 395
251 412 277 32 52 33 40 32 -2238 0 -1238 2 -2254 5 -2258 3 -4 332 -7 733 -7
l727 0 0 3081 0 3080 -956 0 c-834 0 -957 -2 -964 -15 -30 -53 -129 -168 -246
-284 -123 -122 -130 -128 -224 -199 -41 -31 -84 -63 -95 -72 -82 -62 -306
-186 -429 -237 -146 -61 -374 -130 -476 -144 -19 -2 -42 -6 -50 -9 -8 -2 -37
-7 -65 -10 -27 -4 -63 -9 -80 -11 -16 -3 -78 -7 -136 -9 -59 -2 -111 -5 -115
-6 -5 -1 -11 -1 -14 0 -3 1 -50 4 -105 6 -55 1 -119 6 -142 9 -24 3 -60 8 -81
11 -21 3 -49 8 -62 10 -14 3 -41 8 -60 11 -94 15 -375 97 -394 115 -6 5 -16 9
-24 9 -28 0 -368 173 -392 199 -7 8 -42 30 -60 38 -8 4 -17 9 -20 13 -3 3 -21
17 -40 30 -19 13 -37 27 -40 30 -3 3 -25 21 -50 40 -25 19 -54 42 -64 50 -46
36 -245 241 -291 298 -28 35 -62 78 -77 95 l-27 32 -821 0 c-451 0 -820 -3
-820 -7z"/>
</g>
</svg>
